<svg version="1.1" id="Layer_1" xmlns="http://www.w3.org/2000/svg" xmlns:xlink="http://www.w3.org/1999/xlink" x="0px" y="0px"
	 width="100%" viewBox="0 0 551 453" enable-background="new 0 0 551 453" xml:space="preserve">
<path fill="#000000" opacity="1.000000" stroke="none" 
	d="
M375.000000,454.000000 
	C250.000031,454.000000 125.500061,454.000000 1.000067,454.000000 
	C1.000045,303.000061 1.000045,152.000137 1.000022,1.000148 
	C184.666565,1.000099 368.333130,1.000099 551.999756,1.000049 
	C551.999878,151.999863 551.999878,302.999725 551.999939,453.999786 
	C493.166656,454.000000 434.333344,454.000000 375.000000,454.000000 
M12.058985,278.562225 
	C12.366567,278.643707 12.674150,278.725189 13.612581,279.039185 
	C14.402857,279.374481 15.193132,279.709778 16.207090,280.651581 
	C17.127531,281.119446 18.047972,281.587280 19.003237,282.006775 
	C19.003237,282.006775 18.947451,282.027649 19.056578,282.561188 
	C19.364861,282.641846 19.673143,282.722504 20.466248,282.940308 
	C20.632460,282.964417 20.798670,282.988495 21.183115,283.639252 
	C22.129290,284.070465 23.075464,284.501648 24.226007,285.517181 
	C24.810949,285.680695 25.395889,285.844208 26.108202,286.502472 
	C26.396965,286.583984 26.685730,286.665527 27.616941,286.941254 
	C28.400768,287.298096 29.184593,287.654907 30.215530,288.659546 
	C32.145153,289.688293 34.074776,290.717041 36.650734,292.058411 
	C39.408005,293.714386 42.165276,295.370392 45.204926,297.722168 
	C45.679054,298.433807 46.153183,299.145477 46.627300,299.857117 
	C45.204479,300.596039 43.760757,301.297638 42.362511,302.080475 
	C36.814171,305.186859 31.280050,308.318634 25.270386,311.706085 
	C26.931726,313.171722 27.787096,314.217255 28.881577,314.847504 
	C41.773605,322.271576 54.774986,329.509735 67.561440,337.110016 
	C70.313118,338.745605 72.320160,339.032745 75.035339,337.431976 
	C87.847839,329.878052 100.497314,321.998047 113.653992,315.089569 
	C131.710602,305.608154 139.907333,290.735962 139.953903,270.835449 
	C140.009674,247.004379 139.892166,223.172546 140.055298,199.342468 
	C140.079117,195.863770 138.841599,194.107407 135.916565,192.450516 
	C123.075127,185.176529 110.372238,177.657303 97.667374,170.145340 
	C97.192368,169.864487 97.217552,168.737656 96.999962,167.999939 
	C96.999962,167.999939 97.004799,168.009094 97.701180,167.939209 
	C98.816437,167.302246 99.931694,166.665268 100.995819,166.006348 
	C100.995819,166.006348 101.029617,166.050720 101.702065,165.923508 
	C103.122505,164.955078 104.542953,163.986633 106.616966,162.940430 
	C107.415619,162.305420 108.214279,161.670395 109.709312,160.939133 
	C110.805893,160.292908 111.902473,159.646683 113.000000,159.000000 
	C113.000000,159.000000 113.000648,158.998917 113.515198,158.891830 
	C113.688049,158.600449 113.860901,158.309067 114.001251,157.997665 
	C114.001251,157.997665 114.019051,158.031067 114.758102,157.956100 
	C117.027962,157.722778 119.624840,156.458603 116.721451,154.628128 
	C109.443977,150.039978 101.607368,146.338699 93.373131,141.992264 
	C92.246765,141.328613 91.120399,140.664948 89.749039,139.340729 
	C84.636124,136.302673 79.639847,133.032898 74.340378,130.365448 
	C72.715759,129.547714 69.886223,129.687012 68.246674,130.571350 
	C58.372974,135.896973 48.597206,141.419937 38.966232,147.174072 
	C32.815887,150.848648 26.971645,155.035568 21.000076,159.000000 
	C21.000076,159.000000 20.993006,158.990021 20.290518,159.057343 
	C10.805459,166.824493 4.358123,176.223663 4.019409,189.778320 
	C3.975921,190.838211 3.932433,191.898102 3.132010,193.395020 
	C3.088688,218.579117 3.026043,243.763214 3.055466,268.947235 
	C3.057044,270.297028 3.833116,271.645935 4.189071,273.589050 
	C4.793908,273.991150 5.398746,274.393250 6.563371,274.991028 
	C7.030043,275.331360 7.496716,275.671661 8.053349,276.552307 
	C8.362786,276.636475 8.672223,276.720612 9.619452,276.942108 
	C10.053399,276.970490 10.487347,276.998871 11.086504,277.531891 
	C11.380191,277.710388 11.673879,277.888855 12.001570,278.009705 
	C12.001570,278.009705 11.939032,278.033386 12.058985,278.562225 
M85.662933,119.075417 
	C91.263092,122.387550 96.824089,125.768173 102.471710,128.997299 
	C113.627480,135.375793 124.831215,141.670410 136.374969,148.637878 
	C137.377563,149.065369 138.380157,149.492859 139.796783,150.096893 
	C139.796783,140.715240 139.796783,131.847214 140.100067,122.324677 
	C139.996063,120.629974 139.892059,118.935265 139.675339,116.346146 
	C137.708099,116.232048 135.740997,116.022003 133.773575,116.018913 
	C117.011803,115.992577 100.249969,116.003838 82.959343,116.003838 
	C83.496826,116.697006 84.276314,117.702263 85.662933,119.075417 
M58.741875,118.919243 
	C59.547844,118.217613 60.353813,117.515976 61.776535,116.277428 
	C41.467777,116.277428 22.328783,116.277428 3.134951,116.277428 
	C3.134951,119.370087 3.134951,122.168060 3.031987,125.902420 
	C3.023508,130.063766 2.752423,134.246124 3.083248,138.380325 
	C3.390445,142.219254 1.485267,146.522186 4.759605,150.215027 
	C22.770796,139.680527 40.373352,129.385025 58.741875,118.919243 
M500.021515,182.632919 
	C500.021515,199.716064 500.021515,216.799194 500.021515,233.791656 
	C506.671936,233.791656 512.620789,233.791656 518.996765,233.791656 
	C518.996765,231.979370 518.996765,230.352570 518.996765,228.725754 
	C518.996826,210.725845 518.988525,192.725937 519.000549,174.726028 
	C519.006409,165.871384 520.864197,157.772873 525.380676,148.017715 
	C534.002014,176.928848 528.018250,205.548431 530.557617,233.748962 
	C536.896545,233.748962 543.291077,233.748962 549.935303,233.748962 
	C549.935303,231.527161 549.962708,229.557114 549.931091,227.588013 
	C549.605957,207.329926 549.528442,187.063278 548.842285,166.817307 
	C548.435181,154.803345 546.370789,143.057617 539.281372,132.761032 
	C535.870911,127.807724 518.942322,127.043953 515.607605,132.123459 
	C513.215576,135.766968 511.414459,139.798340 509.455109,143.459686 
	C508.339813,141.472977 507.052460,139.428238 506.004761,137.267288 
	C502.752808,130.559967 503.540955,128.814713 494.079681,128.996201 
	C492.913422,129.018570 491.747101,129.047791 490.580750,129.051788 
	C481.211365,129.083878 478.272736,131.274277 475.036163,139.841888 
	C470.604492,151.573044 469.431091,163.856842 469.154297,176.171936 
	C468.753632,193.996185 469.046356,211.836121 469.061615,229.669357 
	C469.062805,231.088501 469.206238,232.507507 469.274719,233.764343 
	C476.059814,233.764343 482.340546,233.764343 488.963959,233.764343 
	C488.963959,213.233124 488.910950,192.939529 489.010040,172.646683 
	C489.029144,168.733276 489.293060,164.750153 490.083466,160.931534 
	C490.864288,157.159454 492.455078,153.555054 493.989471,148.987289 
	C500.454193,159.994095 498.111084,171.196167 500.021515,182.632919 
M391.996887,196.254730 
	C391.327179,193.945450 390.864197,191.550186 389.946686,189.343979 
	C387.723785,183.998917 387.704834,178.574402 389.334656,173.188950 
	C393.330658,159.984802 397.536774,146.844376 401.608063,133.662781 
	C402.528839,130.681656 401.783813,128.836853 398.155823,129.019684 
	C395.165558,129.170364 392.160828,129.095490 389.163910,129.042252 
	C380.797485,128.893646 379.523926,130.463226 377.967499,138.787323 
	C375.653412,151.163742 372.649567,163.411194 369.939240,175.713516 
	C368.982086,161.556091 368.830658,147.569595 369.070221,133.589783 
	C369.146576,129.134644 367.094391,128.592422 363.564301,129.079834 
	C360.664154,129.480255 357.476196,130.592133 354.882050,129.820740 
	C349.760773,128.297882 349.991516,130.940552 350.004425,134.412033 
	C350.074371,153.218384 350.152924,172.026093 349.997620,190.831421 
	C349.890961,203.744446 349.408569,216.654358 349.093689,229.565659 
	C349.038635,231.824844 348.959534,234.042755 352.233337,234.014893 
	C357.686249,233.968475 363.139801,234.002258 368.960510,234.002258 
	C368.960510,217.867264 368.960510,202.141541 368.960510,186.415833 
	C369.204376,186.389099 369.448273,186.362350 369.692139,186.335602 
	C373.457245,202.195816 377.222382,218.056030 380.937286,233.704681 
	C388.692963,233.704681 395.769928,233.704681 403.221558,233.704681 
	C401.726166,228.066238 400.461884,222.763153 398.901672,217.548599 
	C396.841736,210.663834 394.549774,203.848480 391.996887,196.254730 
M409.046478,207.500000 
	C409.046478,216.262314 409.046478,225.024643 409.046478,234.004059 
	C413.943054,234.004059 418.257477,234.004761 422.571899,234.003906 
	C429.064270,234.002625 429.596588,232.918335 429.100830,226.346634 
	C428.594696,219.637039 428.988831,212.859543 428.988831,206.232178 
	C432.683380,206.232178 435.770050,206.232178 439.006042,206.232178 
	C439.006042,214.160233 438.926239,221.801788 439.076141,229.438828 
	C439.104736,230.894409 439.982025,233.561340 440.567139,233.589310 
	C446.894867,233.891800 453.242493,233.778152 459.382721,233.778152 
	C459.204254,230.896027 459.017792,229.021652 458.982849,227.144470 
	C458.630371,208.223312 458.263977,189.302277 457.981659,170.380005 
	C457.793671,157.779587 453.547302,146.335800 447.866028,135.381149 
	C446.575226,132.892303 443.979645,129.521759 441.779388,129.360703 
	C435.649597,128.911972 429.408051,129.892639 423.224884,130.463394 
	C422.754272,130.506836 422.416168,131.778809 421.982300,132.457886 
	C413.110260,146.345016 409.900391,161.877869 409.179688,178.004974 
	C408.756012,187.486359 409.066742,197.000565 409.046478,207.500000 
M203.948593,164.404709 
	C203.950439,159.738525 204.034988,155.070389 203.924789,150.406845 
	C203.852524,147.348663 205.497467,146.894348 208.050049,146.981094 
	C212.275055,147.124710 216.508499,147.020157 220.896591,147.020157 
	C220.896591,141.593735 221.035446,136.935120 220.796021,132.296021 
	C220.738342,131.178467 219.516815,129.289642 218.675980,129.199646 
	C216.151031,128.929428 213.551758,129.461960 210.977844,129.520218 
	C204.194290,129.673798 197.353058,130.319885 190.640823,129.671692 
	C184.700943,129.098068 184.135803,128.927795 184.135056,134.899292 
	C184.131165,166.395935 184.129089,197.892563 184.140717,229.389206 
	C184.141251,230.831741 184.279724,232.274200 184.349335,233.627045 
	C191.076385,233.627045 197.460587,233.627045 204.250366,233.627045 
	C204.250366,218.839874 204.250366,204.431137 204.250366,189.737762 
	C209.949570,189.737762 215.228607,189.737762 220.192291,189.737762 
	C220.192291,183.624664 220.192291,177.834412 220.192291,172.158997 
	C215.110443,172.464264 210.709106,172.861801 206.307129,172.868790 
	C205.525940,172.870041 204.304947,171.352859 204.060318,170.348511 
	C203.676971,168.774521 203.952362,167.040100 203.948593,164.404709 
M276.100952,234.004074 
	C277.620148,233.602402 279.749023,233.697708 280.552216,232.712387 
	C283.899048,228.606628 288.151581,224.583389 289.654388,219.774399 
	C292.324158,211.231262 293.765167,202.196014 294.723785,193.259750 
	C295.519073,185.845810 294.879700,178.278152 294.878967,170.778595 
	C294.877655,157.327301 294.878601,143.875992 294.878601,130.285950 
	C283.402374,130.285950 272.347229,130.285950 261.015259,130.285950 
	C261.015259,133.546158 260.909973,136.524094 261.047058,139.490829 
	C261.166443,142.074692 261.021027,144.917725 262.113098,147.080475 
	C262.514404,147.875214 266.126709,146.993942 268.275360,146.971100 
	C275.032684,146.899216 275.033966,146.916489 275.035828,153.705841 
	C275.039154,165.871841 275.283539,178.044281 274.960754,190.201645 
	C274.734222,198.733307 273.557922,207.222443 268.770966,214.655960 
	C265.377686,219.925308 261.749359,225.043152 258.344574,230.305389 
	C257.723572,231.265152 257.433411,232.607025 257.491882,233.746796 
	C257.512207,234.143204 259.058075,234.789154 259.889221,234.762436 
	C264.992004,234.598419 270.089661,234.274261 276.100952,234.004074 
M305.285431,233.711212 
	C315.489288,234.116547 325.692780,234.738846 335.897308,234.756531 
	C338.117981,234.760391 341.702026,234.185333 341.076935,229.853928 
	C340.700592,227.246109 341.059387,224.538422 340.995392,221.877808 
	C340.903839,218.073105 339.534851,215.669830 335.084351,216.047958 
	C331.828339,216.324600 328.529938,216.102142 324.896149,216.102142 
	C324.896149,213.847946 324.895996,212.056671 324.896210,210.265411 
	C324.899078,184.809250 324.844696,159.352768 324.981750,133.897324 
	C324.997833,130.910278 324.264648,128.932053 321.240051,129.069656 
	C315.906219,129.312317 310.593048,130.008652 305.025513,130.538422 
	C305.025513,156.049362 305.025421,181.484604 305.025543,206.919846 
	C305.025604,215.570206 305.026154,224.220581 305.285431,233.711212 
M250.989532,178.500000 
	C250.987839,163.517883 250.911880,148.535080 251.049347,133.554245 
	C251.075699,130.682617 249.980850,128.973984 247.352417,129.087402 
	C242.014801,129.317688 236.697708,130.023407 231.340027,130.536240 
	C231.340027,164.935822 231.340027,199.300629 231.340027,233.690048 
	C238.003952,233.690048 244.392334,233.690048 250.989609,233.690048 
	C250.989609,215.418381 250.989609,197.459198 250.989532,178.500000 
z"/>
<path fill="#FCFCFC" opacity="1.000000" stroke="none" 
	d="
M97.009636,168.005066 
	C97.217552,168.737656 97.192368,169.864487 97.667374,170.145340 
	C110.372238,177.657303 123.075127,185.176529 135.916565,192.450516 
	C138.841599,194.107407 140.079117,195.863770 140.055298,199.342468 
	C139.892166,223.172546 140.009674,247.004379 139.953903,270.835449 
	C139.907333,290.735962 131.710602,305.608154 113.653992,315.089569 
	C100.497314,321.998047 87.847839,329.878052 75.035339,337.431976 
	C72.320160,339.032745 70.313118,338.745605 67.561440,337.110016 
	C54.774986,329.509735 41.773605,322.271576 28.881577,314.847504 
	C27.787096,314.217255 26.931726,313.171722 25.270386,311.706085 
	C31.280050,308.318634 36.814171,305.186859 42.362511,302.080475 
	C43.760757,301.297638 45.204479,300.596039 46.627304,299.857117 
	C46.153183,299.145477 45.679054,298.433807 45.441952,297.302368 
	C46.419094,295.488739 47.779587,294.103363 47.798580,292.699799 
	C47.921223,283.639282 47.607243,274.572235 47.769630,265.513275 
	C47.814732,262.997284 48.987324,260.501556 49.741894,258.456055 
	C49.841148,271.587830 49.841148,284.260101 49.841148,297.702209 
	C62.301796,290.530487 73.950119,284.200256 85.176048,277.193329 
	C90.126877,274.103180 92.889824,268.810425 93.024361,262.770935 
	C93.459381,243.242493 93.896553,223.710785 93.971542,204.178940 
	C94.014015,193.117233 93.349457,182.052795 93.039810,170.632721 
	C94.387390,169.518936 95.698517,168.761993 97.009636,168.005066 
z"/>
<path fill="#FCFCFC" opacity="1.000000" stroke="none" 
	d="
M500.021423,182.149826 
	C498.111084,171.196167 500.454193,159.994095 493.989471,148.987289 
	C492.455078,153.555054 490.864288,157.159454 490.083466,160.931534 
	C489.293060,164.750153 489.029144,168.733276 489.010040,172.646683 
	C488.910950,192.939529 488.963959,213.233124 488.963959,233.764343 
	C482.340546,233.764343 476.059814,233.764343 469.274719,233.764343 
	C469.206238,232.507507 469.062805,231.088501 469.061615,229.669357 
	C469.046356,211.836121 468.753632,193.996185 469.154297,176.171936 
	C469.431091,163.856842 470.604492,151.573044 475.036163,139.841888 
	C478.272736,131.274277 481.211365,129.083878 490.580750,129.051788 
	C491.747101,129.047791 492.913422,129.018570 494.079681,128.996201 
	C503.540955,128.814713 502.752808,130.559967 506.004761,137.267288 
	C507.052460,139.428238 508.339813,141.472977 509.455109,143.459686 
	C511.414459,139.798340 513.215576,135.766968 515.607605,132.123459 
	C518.942322,127.043953 535.870911,127.807724 539.281372,132.761032 
	C546.370789,143.057617 548.435181,154.803345 548.842285,166.817307 
	C549.528442,187.063278 549.605957,207.329926 549.931091,227.588013 
	C549.962708,229.557114 549.935303,231.527161 549.935303,233.748962 
	C543.291077,233.748962 536.896545,233.748962 530.557617,233.748962 
	C528.018250,205.548431 534.002014,176.928848 525.380676,148.017715 
	C520.864197,157.772873 519.006409,165.871384 519.000549,174.726028 
	C518.988525,192.725937 518.996826,210.725845 518.996765,228.725754 
	C518.996765,230.352570 518.996765,231.979370 518.996765,233.791656 
	C512.620789,233.791656 506.671936,233.791656 500.021515,233.791656 
	C500.021515,216.799194 500.021515,199.716064 500.021423,182.149826 
z"/>
<path fill="#FCFCFC" opacity="1.000000" stroke="none" 
	d="
M392.177246,196.628998 
	C394.549774,203.848480 396.841736,210.663834 398.901672,217.548599 
	C400.461884,222.763153 401.726166,228.066238 403.221558,233.704681 
	C395.769928,233.704681 388.692963,233.704681 380.937286,233.704681 
	C377.222382,218.056030 373.457245,202.195816 369.692139,186.335602 
	C369.448273,186.362350 369.204376,186.389099 368.960510,186.415833 
	C368.960510,202.141541 368.960510,217.867264 368.960510,234.002258 
	C363.139801,234.002258 357.686249,233.968475 352.233337,234.014893 
	C348.959534,234.042755 349.038635,231.824844 349.093689,229.565659 
	C349.408569,216.654358 349.890961,203.744446 349.997620,190.831421 
	C350.152924,172.026093 350.074371,153.218384 350.004425,134.412033 
	C349.991516,130.940552 349.760773,128.297882 354.882050,129.820740 
	C357.476196,130.592133 360.664154,129.480255 363.564301,129.079834 
	C367.094391,128.592422 369.146576,129.134644 369.070221,133.589783 
	C368.830658,147.569595 368.982086,161.556091 369.939240,175.713516 
	C372.649567,163.411194 375.653412,151.163742 377.967499,138.787323 
	C379.523926,130.463226 380.797485,128.893646 389.163910,129.042252 
	C392.160828,129.095490 395.165558,129.170364 398.155823,129.019684 
	C401.783813,128.836853 402.528839,130.681656 401.608063,133.662781 
	C397.536774,146.844376 393.330658,159.984802 389.334656,173.188950 
	C387.704834,178.574402 387.723785,183.998917 389.946686,189.343979 
	C390.864197,191.550186 391.327179,193.945450 392.177246,196.628998 
z"/>
<path fill="#FBFCFC" opacity="1.000000" stroke="none" 
	d="
M409.046814,207.000000 
	C409.066742,197.000565 408.756012,187.486359 409.179688,178.004974 
	C409.900391,161.877869 413.110260,146.345016 421.982300,132.457886 
	C422.416168,131.778809 422.754272,130.506836 423.224884,130.463394 
	C429.408051,129.892639 435.649597,128.911972 441.779388,129.360703 
	C443.979645,129.521759 446.575226,132.892303 447.866028,135.381149 
	C453.547302,146.335800 457.793671,157.779587 457.981659,170.380005 
	C458.263977,189.302277 458.630371,208.223312 458.982849,227.144470 
	C459.017792,229.021652 459.204254,230.896027 459.382721,233.778152 
	C453.242493,233.778152 446.894867,233.891800 440.567139,233.589310 
	C439.982025,233.561340 439.104736,230.894409 439.076141,229.438828 
	C438.926239,221.801788 439.006042,214.160233 439.006042,206.232178 
	C435.770050,206.232178 432.683380,206.232178 428.988831,206.232178 
	C428.988831,212.859543 428.594696,219.637039 429.100830,226.346634 
	C429.596588,232.918335 429.064270,234.002625 422.571899,234.003906 
	C418.257477,234.004761 413.943054,234.004059 409.046478,234.004059 
	C409.046478,225.024643 409.046478,216.262314 409.046814,207.000000 
M438.098389,165.378601 
	C437.088440,160.161331 436.078491,154.944077 435.068542,149.726807 
	C434.523285,149.797470 433.978058,149.868134 433.432800,149.938782 
	C428.884155,162.248779 428.770081,175.056290 428.988983,187.751160 
	C432.716827,187.751160 435.800446,187.751160 439.022125,187.751160 
	C439.022125,180.973434 439.043732,174.519196 438.986176,168.065689 
	C438.980865,167.470245 438.471375,166.879288 438.098389,165.378601 
z"/>
<path fill="#FFFFFF" opacity="1.000000" stroke="none" 
	d="
M49.642643,257.996521 
	C48.987324,260.501556 47.814732,262.997284 47.769630,265.513275 
	C47.607243,274.572235 47.921223,283.639282 47.798580,292.699799 
	C47.779587,294.103363 46.419094,295.488739 45.300758,296.954468 
	C42.165276,295.370392 39.408005,293.714386 36.328743,291.611084 
	C36.004910,290.775726 36.003067,290.387695 36.333214,289.830811 
	C38.592060,288.849579 40.518929,288.037201 43.217785,286.899384 
	C42.252834,282.938293 41.250805,278.745270 40.184715,274.568634 
	C40.074837,274.138153 39.658146,273.616974 39.256413,273.456207 
	C35.409687,271.916504 31.474682,270.580414 27.702396,268.880951 
	C26.389425,268.289459 25.459288,266.848175 24.354309,265.794983 
	C25.599535,264.869141 26.771235,263.307404 28.105673,263.153076 
	C30.691555,262.854095 33.423031,263.072632 35.995209,263.579193 
	C39.423592,264.254425 42.433132,263.687134 43.009087,260.074768 
	C44.294212,252.014496 45.000614,243.860825 45.859570,235.736420 
	C45.912895,235.232010 45.300411,234.607361 44.904091,234.113815 
	C43.076931,231.838455 41.216568,229.589752 39.368099,227.331497 
	C39.679348,226.993408 39.990597,226.655334 40.301849,226.317245 
	C37.734962,226.041534 35.168079,225.765823 33.599495,225.597336 
	C31.900120,228.627335 30.491934,231.138138 29.083746,233.648941 
	C27.608974,231.385071 26.134203,229.121185 24.443256,226.525467 
	C18.332420,225.833160 18.909872,230.501816 18.972515,234.991913 
	C19.069340,241.932281 18.992569,241.933350 12.021783,241.823044 
	C12.021783,250.449188 11.894032,259.079865 12.176068,267.697174 
	C12.213236,268.832764 14.167463,270.272003 15.540809,270.921692 
	C18.460707,272.303070 22.056063,272.661438 24.469454,274.578552 
	C26.344658,276.068146 27.349506,277.077454 29.894743,276.280121 
	C33.404240,275.180786 35.361301,276.813019 34.987171,280.641785 
	C34.714542,283.431732 34.333027,286.211060 33.676949,288.855621 
	C32.225365,288.481323 31.096893,288.246521 29.968422,288.011749 
	C29.184593,287.654907 28.400768,287.298096 27.174778,286.667511 
	C26.523954,286.183441 26.273359,286.054749 25.980833,286.007690 
	C25.395889,285.844208 24.810949,285.680695 24.062172,284.883057 
	C22.920519,283.836823 21.942701,283.424683 20.964882,283.012543 
	C20.798670,282.988495 20.632460,282.964417 20.098928,282.686157 
	C19.515581,282.209259 19.254194,282.074463 18.947451,282.027649 
	C18.947451,282.027649 19.003237,282.006775 18.968391,281.700989 
	C17.950169,280.945160 16.966791,280.495087 15.983412,280.045044 
	C15.193132,279.709778 14.402857,279.374481 13.171309,278.736511 
	C12.512152,278.209900 12.248484,278.076416 11.939032,278.033386 
	C11.939032,278.033386 12.001570,278.009705 11.882511,277.801208 
	C11.482732,277.404236 11.202012,277.215759 10.921293,277.027283 
	C10.487347,276.998871 10.053399,276.970490 9.178135,276.686981 
	C8.525402,276.206451 8.267592,276.066498 7.963389,276.011993 
	C7.496716,275.671661 7.030043,275.331360 6.282960,274.593567 
	C6.001164,273.796539 5.999778,273.396973 6.042520,272.615723 
	C6.499768,269.669098 7.376717,267.080353 7.246487,264.543335 
	C6.652339,252.968735 5.500072,241.418625 5.081102,229.840439 
	C4.698540,219.268387 5.049274,208.671112 4.950237,198.086151 
	C4.934214,196.373596 4.259295,194.667221 3.888945,192.957993 
	C3.932433,191.898102 3.975921,190.838211 4.472152,189.294662 
	C5.169879,188.600052 5.605319,188.411011 5.632464,188.174988 
	C6.858544,177.514481 12.059136,169.100342 20.047909,162.166916 
	C20.751806,161.556015 20.695972,160.069717 20.993008,158.990021 
	C20.993006,158.990021 21.000076,159.000000 21.396484,159.001099 
	C24.197935,157.833908 26.676476,156.794647 28.994844,155.474182 
	C37.414062,150.678772 45.750778,145.738297 54.179050,140.959122 
	C57.744404,138.937439 61.473385,135.691757 65.103043,135.725021 
	C68.672684,135.757721 69.980225,134.764938 71.286880,131.027313 
	C72.892448,133.066299 73.915611,134.365646 74.938774,135.664993 
	C78.056824,135.790497 80.760750,136.949249 83.519073,137.959442 
	C85.641922,138.736908 87.833191,139.327560 89.994034,140.001297 
	C91.120399,140.664948 92.246765,141.328613 93.735237,142.469604 
	C97.893959,145.395294 101.871658,147.609604 105.431709,150.363754 
	C108.450684,152.699326 113.819145,152.536484 114.019051,158.031067 
	C114.019051,158.031067 114.001251,157.997665 113.789566,158.105042 
	C113.291382,158.405518 113.098969,158.667679 113.000648,158.998917 
	C113.000648,158.998917 113.000000,159.000000 112.621460,158.997986 
	C111.166260,159.675766 110.089600,160.355576 109.012939,161.035370 
	C108.214279,161.670395 107.415619,162.305420 105.910034,162.969376 
	C103.811935,164.015793 102.420776,165.033249 101.029617,166.050720 
	C101.029617,166.050720 100.995819,166.006348 100.641464,166.008698 
	C99.193008,166.677063 98.098907,167.343079 97.004807,168.009094 
	C97.004799,168.009094 96.999962,167.999939 97.004799,168.002502 
	C95.698517,168.761993 94.387390,169.518936 92.792374,170.615082 
	C92.508484,170.954315 92.014992,171.005264 91.625732,171.006927 
	C88.510468,172.705200 83.820648,171.185333 83.007660,176.013306 
	C82.999939,175.998718 83.028214,176.016083 82.650879,176.009857 
	C81.180229,176.904663 80.086906,177.805710 78.744774,178.800476 
	C78.321678,178.926422 78.147392,178.958633 77.625031,178.994263 
	C76.510147,179.640854 75.743324,180.284027 74.874649,181.222046 
	C74.181686,181.676651 73.590561,181.836411 72.807465,181.750549 
	C71.411713,182.339264 70.207932,183.173569 69.002075,184.003937 
	C69.000000,184.000000 69.007881,184.004318 68.668503,184.003418 
	C67.551529,184.593582 66.773941,185.184662 65.772400,185.868073 
	C65.548454,185.960419 65.068306,186.025070 64.643974,186.016785 
	C57.734917,186.081345 52.608513,190.738663 51.999714,197.320129 
	C51.968437,197.558426 51.770535,197.996490 51.441502,198.067719 
	C50.749622,199.113953 50.386776,200.088959 50.002262,201.432953 
	C49.909317,202.533432 49.838039,203.264908 49.389221,204.111145 
	C48.689629,204.768555 48.091816,205.308685 48.086903,205.854172 
	C48.013424,214.015701 47.967422,222.178635 48.076630,230.339050 
	C48.088623,231.235184 49.097134,232.118011 49.740486,233.463852 
	C49.772781,238.624878 49.708038,243.329041 49.523163,248.126663 
	C49.243263,248.529846 49.322483,248.777863 49.736847,249.379547 
	C49.768841,251.208603 49.704681,252.622314 49.520607,254.129059 
	C49.242554,254.531311 49.322063,254.778854 49.735054,255.337646 
	C49.768139,256.472534 49.705391,257.234528 49.642643,257.996521 
M95.056587,160.720139 
	C95.585098,160.005112 96.716934,159.066422 96.547745,158.610062 
	C95.040154,154.543533 93.302788,150.562195 91.626907,146.540848 
	C88.585068,146.681000 85.122627,146.727966 81.683029,147.032700 
	C78.636703,147.302597 77.116577,145.839783 76.137215,143.166626 
	C75.631737,141.786911 74.630600,140.588791 73.853416,139.308624 
	C72.659416,140.350098 71.061356,141.171768 70.351562,142.476624 
	C68.622108,145.655991 66.373596,146.653015 62.934475,145.532379 
	C61.551739,145.081818 59.994080,145.009354 58.519314,145.027756 
	C52.509979,145.102676 50.024536,148.243225 50.815109,154.187546 
	C51.060654,156.033829 50.540222,157.981964 50.370464,159.883469 
	C48.799873,159.445282 48.314732,159.007523 48.121243,158.465637 
	C46.316643,153.411713 44.679207,152.610306 40.283363,155.497803 
	C35.303391,158.769012 31.581276,163.026031 31.984724,169.605118 
	C32.076210,171.096985 32.354237,172.743561 31.858015,174.059311 
	C31.345320,175.418716 29.994135,176.461884 29.009748,177.643387 
	C28.019306,176.468491 26.411963,175.406921 26.170887,174.094391 
	C25.713366,171.603439 26.038424,168.968750 26.038424,166.273895 
	C19.390730,167.385498 19.085546,167.616623 19.036911,173.135941 
	C19.010750,176.104538 18.360891,178.210144 15.071242,179.118774 
	C13.861306,179.452957 12.300238,181.110764 12.226579,182.250626 
	C12.149431,183.444473 13.632597,184.765152 14.494876,185.987305 
	C15.638645,187.608429 17.733889,189.116455 17.868206,190.797119 
	C18.527884,199.051529 18.603188,207.350891 19.058691,215.624802 
	C19.150944,217.300537 19.826973,220.282532 20.516954,220.367630 
	C24.694101,220.882950 29.261192,228.037613 33.212940,220.036880 
	C33.485359,219.485352 34.655979,219.282394 35.450809,219.099274 
	C40.926834,217.837708 41.892384,216.284866 40.693733,210.527298 
	C38.995083,202.368057 39.484383,201.430176 47.356133,198.863571 
	C46.743828,196.578812 45.808456,194.285507 45.591454,191.926132 
	C45.393307,189.771774 45.595581,187.378952 46.445915,185.455780 
	C46.692905,184.897156 49.775253,185.591431 51.557747,185.712997 
	C52.044888,185.746201 52.531628,185.785294 51.693451,185.722656 
	C55.365421,183.009995 58.419857,181.190094 60.919884,178.792175 
	C63.810818,176.019333 66.457626,173.336563 70.958992,174.320633 
	C71.311653,174.397720 71.955307,173.511124 72.346466,172.985214 
	C74.925278,169.518066 77.454041,166.013580 80.048691,162.558487 
	C80.430702,162.049789 81.051460,161.427628 81.602448,161.385071 
	C85.832840,161.058502 90.073303,160.862274 95.056587,160.720139 
M69.119530,178.274490 
	C68.575188,178.466980 68.030846,178.659470 67.486504,178.851959 
	C67.614090,179.131027 67.741669,179.410080 67.869255,179.689148 
	C68.429558,179.362823 68.989861,179.036484 69.119530,178.274490 
M103.097908,159.732391 
	C103.042892,159.232544 102.987885,158.732697 102.932869,158.232849 
	C102.485237,158.347809 102.037605,158.462769 101.589973,158.577728 
	C101.892921,159.004456 102.195869,159.431198 103.097908,159.732391 
z"/>
<path fill="#FAFAFA" opacity="1.000000" stroke="none" 
	d="
M203.948669,164.889175 
	C203.952362,167.040100 203.676971,168.774521 204.060318,170.348511 
	C204.304947,171.352859 205.525940,172.870041 206.307129,172.868790 
	C210.709106,172.861801 215.110443,172.464264 220.192291,172.158997 
	C220.192291,177.834412 220.192291,183.624664 220.192291,189.737762 
	C215.228607,189.737762 209.949570,189.737762 204.250366,189.737762 
	C204.250366,204.431137 204.250366,218.839874 204.250366,233.627045 
	C197.460587,233.627045 191.076385,233.627045 184.349335,233.627045 
	C184.279724,232.274200 184.141251,230.831741 184.140717,229.389206 
	C184.129089,197.892563 184.131165,166.395935 184.135056,134.899292 
	C184.135803,128.927795 184.700943,129.098068 190.640823,129.671692 
	C197.353058,130.319885 204.194290,129.673798 210.977844,129.520218 
	C213.551758,129.461960 216.151031,128.929428 218.675980,129.199646 
	C219.516815,129.289642 220.738342,131.178467 220.796021,132.296021 
	C221.035446,136.935120 220.896591,141.593735 220.896591,147.020157 
	C216.508499,147.020157 212.275055,147.124710 208.050049,146.981094 
	C205.497467,146.894348 203.852524,147.348663 203.924789,150.406845 
	C204.034988,155.070389 203.950439,159.738525 203.948669,164.889175 
z"/>
<path fill="#FBFBFB" opacity="1.000000" stroke="none" 
	d="
M275.644989,234.003723 
	C270.089661,234.274261 264.992004,234.598419 259.889221,234.762436 
	C259.058075,234.789154 257.512207,234.143204 257.491882,233.746796 
	C257.433411,232.607025 257.723572,231.265152 258.344574,230.305389 
	C261.749359,225.043152 265.377686,219.925308 268.770966,214.655960 
	C273.557922,207.222443 274.734222,198.733307 274.960754,190.201645 
	C275.283539,178.044281 275.039154,165.871841 275.035828,153.705841 
	C275.033966,146.916489 275.032684,146.899216 268.275360,146.971100 
	C266.126709,146.993942 262.514404,147.875214 262.113098,147.080475 
	C261.021027,144.917725 261.166443,142.074692 261.047058,139.490829 
	C260.909973,136.524094 261.015259,133.546158 261.015259,130.285950 
	C272.347229,130.285950 283.402374,130.285950 294.878601,130.285950 
	C294.878601,143.875992 294.877655,157.327301 294.878967,170.778595 
	C294.879700,178.278152 295.519073,185.845810 294.723785,193.259750 
	C293.765167,202.196014 292.324158,211.231262 289.654388,219.774399 
	C288.151581,224.583389 283.899048,228.606628 280.552216,232.712387 
	C279.749023,233.697708 277.620148,233.602402 275.644989,234.003723 
z"/>
<path fill="#FBFBFB" opacity="1.000000" stroke="none" 
	d="
M305.155945,233.291077 
	C305.026154,224.220581 305.025604,215.570206 305.025543,206.919846 
	C305.025421,181.484604 305.025513,156.049362 305.025513,130.538422 
	C310.593048,130.008652 315.906219,129.312317 321.240051,129.069656 
	C324.264648,128.932053 324.997833,130.910278 324.981750,133.897324 
	C324.844696,159.352768 324.899078,184.809250 324.896210,210.265411 
	C324.895996,212.056671 324.896149,213.847946 324.896149,216.102142 
	C328.529938,216.102142 331.828339,216.324600 335.084351,216.047958 
	C339.534851,215.669830 340.903839,218.073105 340.995392,221.877808 
	C341.059387,224.538422 340.700592,227.246109 341.076935,229.853928 
	C341.702026,234.185333 338.117981,234.760391 335.897308,234.756531 
	C325.692780,234.738846 315.489288,234.116547 305.155945,233.291077 
z"/>
<path fill="#FCFCFC" opacity="1.000000" stroke="none" 
	d="
M250.989563,179.000000 
	C250.989609,197.459198 250.989609,215.418381 250.989609,233.690048 
	C244.392334,233.690048 238.003952,233.690048 231.340027,233.690048 
	C231.340027,199.300629 231.340027,164.935822 231.340027,130.536240 
	C236.697708,130.023407 242.014801,129.317688 247.352417,129.087402 
	C249.980850,128.973984 251.075699,130.682617 251.049347,133.554245 
	C250.911880,148.535080 250.987839,163.517883 250.989563,179.000000 
z"/>
<path fill="#0A9549" opacity="1.000000" stroke="none" 
	d="
M57.975906,119.089523 
	C40.373352,129.385025 22.770796,139.680527 4.759605,150.215027 
	C1.485267,146.522186 3.390445,142.219254 3.083248,138.380325 
	C2.752423,134.246124 3.023508,130.063766 3.376324,125.156784 
	C3.917558,122.145256 4.114454,119.879379 4.296917,117.779587 
	C4.877793,117.483154 5.165599,117.208397 5.454701,117.207031 
	C22.060467,117.128464 38.666466,117.039970 55.271866,117.103363 
	C56.175728,117.106812 57.074673,118.397842 57.975906,119.089523 
z"/>
<path fill="#CA2E33" opacity="1.000000" stroke="none" 
	d="
M139.788055,117.240562 
	C139.892059,118.935265 139.996063,120.629974 139.690277,122.979454 
	C139.180725,130.446503 139.044617,137.258545 139.002518,144.071182 
	C138.989227,146.219421 139.015289,148.208786 136.015121,147.999695 
	C124.831215,141.670410 113.627480,135.375793 102.471710,128.997299 
	C96.824089,125.768173 91.263092,122.387550 85.446442,118.511383 
	C85.944237,117.638741 86.658867,117.060104 87.372742,117.061020 
	C104.844566,117.083488 122.316299,117.167542 139.788055,117.240562 
z"/>
<path fill="#FFFFFF" opacity="1.000000" stroke="none" 
	d="
M3.510478,193.176514 
	C4.259295,194.667221 4.934214,196.373596 4.950237,198.086151 
	C5.049274,208.671112 4.698540,219.268387 5.081102,229.840439 
	C5.500072,241.418625 6.652339,252.968735 7.246487,264.543335 
	C7.376717,267.080353 6.499768,269.669098 5.750944,272.615814 
	C5.026376,272.996826 4.637510,272.996033 4.248647,272.995239 
	C3.833116,271.645935 3.057044,270.297028 3.055466,268.947235 
	C3.026043,243.763214 3.088688,218.579117 3.510478,193.176514 
z"/>
<path fill="#FCFCFC" opacity="1.000000" stroke="none" 
	d="
M89.871536,139.671021 
	C87.833191,139.327560 85.641922,138.736908 83.519073,137.959442 
	C80.760750,136.949249 78.056824,135.790497 74.938774,135.664993 
	C73.915611,134.365646 72.892448,133.066299 71.286880,131.027313 
	C69.980225,134.764938 68.672684,135.757721 65.103043,135.725021 
	C61.473385,135.691757 57.744404,138.937439 54.179050,140.959122 
	C45.750778,145.738297 37.414062,150.678772 28.994844,155.474182 
	C26.676476,156.794647 24.197935,157.833908 21.391525,158.997482 
	C26.971645,155.035568 32.815887,150.848648 38.966232,147.174072 
	C48.597206,141.419937 58.372974,135.896973 68.246674,130.571350 
	C69.886223,129.687012 72.715759,129.547714 74.340378,130.365448 
	C79.639847,133.032898 84.636124,136.302673 89.871536,139.671021 
z"/>
<path fill="#FCFCFC" opacity="1.000000" stroke="none" 
	d="
M20.641762,159.023682 
	C20.695972,160.069717 20.751806,161.556015 20.047909,162.166916 
	C12.059136,169.100342 6.858544,177.514481 5.632464,188.174988 
	C5.605319,188.411011 5.169879,188.600052 4.563518,188.906952 
	C4.358123,176.223663 10.805459,166.824493 20.641762,159.023682 
z"/>
<path fill="#5BA17F" opacity="1.000000" stroke="none" 
	d="
M58.358891,119.004379 
	C57.074673,118.397842 56.175728,117.106812 55.271866,117.103363 
	C38.666466,117.039970 22.060467,117.128464 5.454701,117.207031 
	C5.165599,117.208397 4.877793,117.483154 4.296917,117.779587 
	C4.114454,119.879379 3.917558,122.145256 3.427806,124.688583 
	C3.134951,122.168060 3.134951,119.370087 3.134951,116.277428 
	C22.328783,116.277428 41.467777,116.277428 61.776535,116.277428 
	C60.353813,117.515976 59.547844,118.217613 58.358891,119.004379 
z"/>
<path fill="#BA7078" opacity="1.000000" stroke="none" 
	d="
M139.731689,116.793350 
	C122.316299,117.167542 104.844566,117.083488 87.372742,117.061020 
	C86.658867,117.060104 85.944237,117.638741 85.142883,118.327438 
	C84.276314,117.702263 83.496826,116.697006 82.959343,116.003838 
	C100.249969,116.003838 117.011803,115.992577 133.773575,116.018913 
	C135.740997,116.022003 137.708099,116.232048 139.731689,116.793350 
z"/>
<path fill="#FCFCFC" opacity="1.000000" stroke="none" 
	d="
M114.388580,157.993591 
	C113.819145,152.536484 108.450684,152.699326 105.431709,150.363754 
	C101.871658,147.609604 97.893959,145.395294 94.046188,142.614319 
	C101.607368,146.338699 109.443977,150.039978 116.721451,154.628128 
	C119.624840,156.458603 117.027962,157.722778 114.388580,157.993591 
z"/>
<path fill="#B15A60" opacity="1.000000" stroke="none" 
	d="
M136.195038,148.318787 
	C139.015289,148.208786 138.989227,146.219421 139.002518,144.071182 
	C139.044617,137.258545 139.180725,130.446503 139.538635,123.306702 
	C139.796783,131.847214 139.796783,140.715240 139.796783,150.096893 
	C138.380157,149.492859 137.377563,149.065369 136.195038,148.318787 
z"/>
<path fill="#FCFCFC" opacity="1.000000" stroke="none" 
	d="
M30.091976,288.335632 
	C31.096893,288.246521 32.225365,288.481323 33.935951,288.963745 
	C35.012447,289.474152 35.506836,289.736908 36.001228,289.999664 
	C36.003067,290.387695 36.004910,290.775726 36.005577,291.454773 
	C34.074776,290.717041 32.145153,289.688293 30.091976,288.335632 
z"/>
<path fill="#FCFCFC" opacity="1.000000" stroke="none" 
	d="
M101.365837,165.987106 
	C102.420776,165.033249 103.811935,164.015793 105.583252,163.008270 
	C104.542953,163.986633 103.122505,164.955078 101.365837,165.987106 
z"/>
<path fill="#FCFCFC" opacity="1.000000" stroke="none" 
	d="
M16.095253,280.348328 
	C16.966791,280.495087 17.950169,280.945160 18.950979,281.725159 
	C18.047972,281.587280 17.127531,281.119446 16.095253,280.348328 
z"/>
<path fill="#FCFCFC" opacity="1.000000" stroke="none" 
	d="
M109.361122,160.987244 
	C110.089600,160.355576 111.166260,159.675766 112.620987,158.998215 
	C111.902473,159.646683 110.805893,160.292908 109.361122,160.987244 
z"/>
<path fill="#FCFCFC" opacity="1.000000" stroke="none" 
	d="
M97.352997,167.974152 
	C98.098907,167.343079 99.193008,166.677063 100.667030,166.019684 
	C99.931694,166.665268 98.816437,167.302246 97.352997,167.974152 
z"/>
<path fill="#FCFCFC" opacity="1.000000" stroke="none" 
	d="
M21.073999,283.325897 
	C21.942701,283.424683 22.920519,283.836823 23.959988,284.590881 
	C23.075464,284.501648 22.129290,284.070465 21.073999,283.325897 
z"/>
<path fill="#FCFCFC" opacity="1.000000" stroke="none" 
	d="
M4.218858,273.292175 
	C4.637510,272.996033 5.026376,272.996826 5.706817,272.997498 
	C5.999778,273.396973 6.001164,273.796539 6.003067,274.495728 
	C5.398746,274.393250 4.793908,273.991150 4.218858,273.292175 
z"/>
<path fill="#FCFCFC" opacity="1.000000" stroke="none" 
	d="
M113.257919,158.945374 
	C113.098969,158.667679 113.291382,158.405518 113.805817,158.115051 
	C113.860901,158.309067 113.688049,158.600449 113.257919,158.945374 
z"/>
<path fill="#FCFCFC" opacity="1.000000" stroke="none" 
	d="
M8.008369,276.282166 
	C8.267592,276.066498 8.525402,276.206451 8.859240,276.618317 
	C8.672223,276.720612 8.362786,276.636475 8.008369,276.282166 
z"/>
<path fill="#FCFCFC" opacity="1.000000" stroke="none" 
	d="
M11.003898,277.279572 
	C11.202012,277.215759 11.482732,277.404236 11.865509,277.830017 
	C11.673879,277.888855 11.380191,277.710388 11.003898,277.279572 
z"/>
<path fill="#FCFCFC" opacity="1.000000" stroke="none" 
	d="
M11.999008,278.297791 
	C12.248484,278.076416 12.512152,278.209900 12.855885,278.620239 
	C12.674150,278.725189 12.366567,278.643707 11.999008,278.297791 
z"/>
<path fill="#FCFCFC" opacity="1.000000" stroke="none" 
	d="
M19.002014,282.294434 
	C19.254194,282.074463 19.515581,282.209259 19.856518,282.617584 
	C19.673143,282.722504 19.364861,282.641846 19.002014,282.294434 
z"/>
<path fill="#FCFCFC" opacity="1.000000" stroke="none" 
	d="
M26.044518,286.255066 
	C26.273359,286.054749 26.523954,286.183441 26.853554,286.570435 
	C26.685730,286.665527 26.396965,286.583984 26.044518,286.255066 
z"/>
<path fill="#000000" opacity="1.000000" stroke="none" 
	d="
M49.640518,254.036026 
	C49.704681,252.622314 49.768841,251.208603 49.826523,249.147064 
	C49.820045,248.499252 49.643295,248.033218 49.643295,248.033218 
	C49.708038,243.329041 49.772781,238.624878 49.838573,233.003922 
	C49.815334,222.723557 49.791050,213.359970 49.766766,203.996384 
	C49.838039,203.264908 49.909317,202.533432 50.311501,201.302963 
	C51.018452,199.868149 51.394489,198.932312 51.770531,197.996490 
	C51.770535,197.996490 51.968437,197.558426 52.312912,197.190552 
	C56.794361,193.223480 60.931332,189.624283 65.068306,186.025070 
	C65.068306,186.025070 65.548454,185.960419 66.090874,185.933868 
	C67.424820,185.272980 68.216347,184.638641 69.007874,184.004303 
	C69.007881,184.004318 69.000000,184.000000 69.353798,183.969955 
	C70.804878,183.291992 71.902153,182.644073 72.999435,181.996155 
	C73.590561,181.836411 74.181686,181.676651 75.195648,181.201218 
	C76.403358,180.253967 77.188232,179.622406 77.973099,178.990829 
	C78.147392,178.958633 78.321678,178.926422 79.070450,178.817810 
	C80.772690,177.832993 81.900444,176.924530 83.028214,176.016083 
	C83.028214,176.016083 82.999939,175.998718 83.375473,175.969086 
	C86.505661,174.294739 89.260330,172.649994 92.014992,171.005264 
	C92.014992,171.005264 92.508484,170.954315 92.755913,170.971954 
	C93.349457,182.052795 94.014015,193.117233 93.971542,204.178940 
	C93.896553,223.710785 93.459381,243.242493 93.024361,262.770935 
	C92.889824,268.810425 90.126877,274.103180 85.176048,277.193329 
	C73.950119,284.200256 62.301796,290.530487 49.841148,297.702209 
	C49.841148,284.260101 49.841148,271.587830 49.741898,258.456055 
	C49.705391,257.234528 49.768139,256.472534 49.825203,255.105606 
	C49.819523,254.500656 49.640518,254.036026 49.640518,254.036026 
z"/>
<path fill="#000000" opacity="1.000000" stroke="none" 
	d="
M438.147217,165.832428 
	C438.471375,166.879288 438.980865,167.470245 438.986176,168.065689 
	C439.043732,174.519196 439.022125,180.973434 439.022125,187.751160 
	C435.800446,187.751160 432.716827,187.751160 428.988983,187.751160 
	C428.770081,175.056290 428.884155,162.248779 433.432800,149.938782 
	C433.978058,149.868134 434.523285,149.797470 435.068542,149.726807 
	C436.078491,154.944077 437.088440,160.161331 438.147217,165.832428 
z"/>
<path fill="#FFFFFF" opacity="1.000000" stroke="none" 
	d="
M94.683609,160.672852 
	C90.073303,160.862274 85.832840,161.058502 81.602448,161.385071 
	C81.051460,161.427628 80.430702,162.049789 80.048691,162.558487 
	C77.454041,166.013580 74.925278,169.518066 72.346466,172.985214 
	C71.955307,173.511124 71.311653,174.397720 70.958992,174.320633 
	C66.457626,173.336563 63.810818,176.019333 60.919884,178.792175 
	C58.419857,181.190094 55.365421,183.009995 51.693451,185.722656 
	C52.531628,185.785294 52.044888,185.746201 51.557747,185.712997 
	C49.775253,185.591431 46.692905,184.897156 46.445915,185.455780 
	C45.595581,187.378952 45.393307,189.771774 45.591454,191.926132 
	C45.808456,194.285507 46.743828,196.578812 47.356133,198.863571 
	C39.484383,201.430176 38.995083,202.368057 40.693733,210.527298 
	C41.892384,216.284866 40.926834,217.837708 35.450809,219.099274 
	C34.655979,219.282394 33.485359,219.485352 33.212940,220.036880 
	C29.261192,228.037613 24.694101,220.882950 20.516954,220.367630 
	C19.826973,220.282532 19.150944,217.300537 19.058691,215.624802 
	C18.603188,207.350891 18.527884,199.051529 17.868206,190.797119 
	C17.733889,189.116455 15.638645,187.608429 14.494876,185.987305 
	C13.632597,184.765152 12.149431,183.444473 12.226579,182.250626 
	C12.300238,181.110764 13.861306,179.452957 15.071242,179.118774 
	C18.360891,178.210144 19.010750,176.104538 19.036911,173.135941 
	C19.085546,167.616623 19.390730,167.385498 26.038424,166.273895 
	C26.038424,168.968750 25.713366,171.603439 26.170887,174.094391 
	C26.411963,175.406921 28.019306,176.468491 29.009752,177.643387 
	C29.994135,176.461884 31.345320,175.418716 31.858015,174.059311 
	C32.354237,172.743561 32.076210,171.096985 31.984724,169.605118 
	C31.581276,163.026031 35.303391,158.769012 40.283363,155.497803 
	C44.679207,152.610306 46.316643,153.411713 48.121243,158.465637 
	C48.314732,159.007523 48.799873,159.445282 50.370464,159.883469 
	C50.540222,157.981964 51.060654,156.033829 50.815109,154.187546 
	C50.024536,148.243225 52.509979,145.102676 58.519314,145.027756 
	C59.994080,145.009354 61.551739,145.081818 62.934475,145.532379 
	C66.373596,146.653015 68.622108,145.655991 70.351562,142.476624 
	C71.061356,141.171768 72.659416,140.350098 73.853416,139.308624 
	C74.630600,140.588791 75.631737,141.786911 76.137215,143.166626 
	C77.116577,145.839783 78.636703,147.302597 81.683029,147.032700 
	C85.122627,146.727966 88.585068,146.681000 91.626907,146.540848 
	C93.302788,150.562195 95.040154,154.543533 96.547745,158.610062 
	C96.716934,159.066422 95.585098,160.005112 94.683609,160.672852 
z"/>
<path fill="#FFFFFF" opacity="1.000000" stroke="none" 
	d="
M36.333210,289.830811 
	C35.506836,289.736908 35.012447,289.474152 34.259056,289.103241 
	C34.333027,286.211060 34.714542,283.431732 34.987171,280.641785 
	C35.361301,276.813019 33.404240,275.180786 29.894743,276.280121 
	C27.349506,277.077454 26.344658,276.068146 24.469454,274.578552 
	C22.056063,272.661438 18.460707,272.303070 15.540809,270.921692 
	C14.167463,270.272003 12.213236,268.832764 12.176068,267.697174 
	C11.894032,259.079865 12.021783,250.449188 12.021783,241.823044 
	C18.992569,241.933350 19.069340,241.932281 18.972515,234.991913 
	C18.909872,230.501816 18.332420,225.833160 24.443256,226.525467 
	C26.134203,229.121185 27.608974,231.385071 29.083746,233.648941 
	C30.491934,231.138138 31.900120,228.627335 33.599495,225.597336 
	C35.168079,225.765823 37.734962,226.041534 40.301849,226.317245 
	C39.990597,226.655334 39.679348,226.993408 39.368099,227.331497 
	C41.216568,229.589752 43.076931,231.838455 44.904091,234.113815 
	C45.300411,234.607361 45.912895,235.232010 45.859570,235.736420 
	C45.000614,243.860825 44.294212,252.014496 43.009087,260.074768 
	C42.433132,263.687134 39.423592,264.254425 35.995209,263.579193 
	C33.423031,263.072632 30.691555,262.854095 28.105673,263.153076 
	C26.771235,263.307404 25.599535,264.869141 24.354309,265.794983 
	C25.459288,266.848175 26.389425,268.289459 27.702396,268.880951 
	C31.474682,270.580414 35.409687,271.916504 39.256413,273.456207 
	C39.658146,273.616974 40.074837,274.138153 40.184715,274.568634 
	C41.250805,278.745270 42.252834,282.938293 43.217785,286.899384 
	C40.518929,288.037201 38.592060,288.849579 36.333210,289.830811 
z"/>
<path fill="#FCFCFC" opacity="1.000000" stroke="none" 
	d="
M49.389221,204.111145 
	C49.791050,213.359970 49.815334,222.723557 49.741531,232.547073 
	C49.097134,232.118011 48.088623,231.235184 48.076630,230.339050 
	C47.967422,222.178635 48.013424,214.015701 48.086903,205.854172 
	C48.091816,205.308685 48.689629,204.768555 49.389221,204.111145 
z"/>
<path fill="#FCFCFC" opacity="1.000000" stroke="none" 
	d="
M64.643974,186.016785 
	C60.931332,189.624283 56.794361,193.223480 52.344189,196.952255 
	C52.608513,190.738663 57.734917,186.081345 64.643974,186.016785 
z"/>
<path fill="#FCFCFC" opacity="1.000000" stroke="none" 
	d="
M91.625732,171.006927 
	C89.260330,172.649994 86.505661,174.294739 83.383186,175.983688 
	C83.820648,171.185333 88.510468,172.705200 91.625732,171.006927 
z"/>
<path fill="#FCFCFC" opacity="1.000000" stroke="none" 
	d="
M72.807465,181.750549 
	C71.902153,182.644073 70.804878,183.291992 69.355881,183.973892 
	C70.207932,183.173569 71.411713,182.339264 72.807465,181.750549 
z"/>
<path fill="#FCFCFC" opacity="1.000000" stroke="none" 
	d="
M82.650879,176.009842 
	C81.900444,176.924530 80.772690,177.832993 79.319252,178.724106 
	C80.086906,177.805710 81.180229,176.904663 82.650879,176.009842 
z"/>
<path fill="#FCFCFC" opacity="1.000000" stroke="none" 
	d="
M69.334839,178.492310 
	C68.989861,179.036484 68.429558,179.362823 67.869255,179.689148 
	C67.741669,179.410080 67.614090,179.131027 67.486504,178.851959 
	C68.030846,178.659470 68.575188,178.466980 69.334839,178.492310 
z"/>
<path fill="#FFFFFF" opacity="1.000000" stroke="none" 
	d="
M102.798363,159.795166 
	C102.195869,159.431198 101.892921,159.004456 101.589973,158.577728 
	C102.037605,158.462769 102.485237,158.347809 102.932869,158.232849 
	C102.987885,158.732697 103.042892,159.232544 102.798363,159.795166 
z"/>
<path fill="#FCFCFC" opacity="1.000000" stroke="none" 
	d="
M51.441498,198.067719 
	C51.394489,198.932312 51.018452,199.868149 50.333168,200.933960 
	C50.386776,200.088959 50.749622,199.113953 51.441498,198.067719 
z"/>
<path fill="#FCFCFC" opacity="1.000000" stroke="none" 
	d="
M68.668495,184.003403 
	C68.216347,184.638641 67.424820,185.272980 66.314819,185.841522 
	C66.773941,185.184662 67.551529,184.593582 68.668495,184.003403 
z"/>
<path fill="#FCFCFC" opacity="1.000000" stroke="none" 
	d="
M77.625031,178.994263 
	C77.188232,179.622406 76.403358,180.253967 75.297493,180.906372 
	C75.743324,180.284027 76.510147,179.640854 77.625031,178.994263 
z"/>
<path fill="#FCFCFC" opacity="1.000000" stroke="none" 
	d="
M49.523163,248.126663 
	C49.643295,248.033218 49.820045,248.499252 49.730370,248.731720 
	C49.322483,248.777863 49.243263,248.529846 49.523163,248.126663 
z"/>
<path fill="#FCFCFC" opacity="1.000000" stroke="none" 
	d="
M49.520607,254.129059 
	C49.640518,254.036026 49.819523,254.500656 49.729370,254.732697 
	C49.322063,254.778854 49.242554,254.531311 49.520607,254.129059 
z"/>
</svg>