<?xml version="1.0" encoding="UTF-8"?>
<svg id="Livello_1" data-name="Livello 1" xmlns="http://www.w3.org/2000/svg" viewBox="0 0 1080 1080">
  <defs>
    <style>
      .cls-1 {
        fill: #fff;
      }

      .cls-2 {
        fill: #3c69ae;
      }
    </style>
  </defs>
  <path class="cls-2" d="M540,862c-177.55,0-322-144.45-322-322s144.45-322,322-322,322,144.45,322,322-144.45,322-322,322Z"/>
  <g>
    <path class="cls-1" d="M512.7,596l-7.99,18.35h0c-12.63,28.97-41.53,49.22-75.16,49.22-29.04,0-54.56-15.11-69.12-37.9h0s-37.52-57.29-37.52-57.29l24.5-37.62,47.18,72.61c7.28,11.6,20.18,19.31,34.89,19.31,16.86,0,31.35-10.14,37.71-24.65l11.27-25.94h-48.98s26.12-40.18,26.12-40.18h163.6c-19.09-22.93-34.35-49.16-44.81-77.7l-21.48,49.39h-44.67l43.05-98.97h-121.93s26.67-41.03,26.67-41.03h263.6l-26.67,41.03h-90.54c8.96,48.19,33.43,90.94,68.03,122.87l-28.98,44.59h-95.89l97.31,149.73h-48.34l-81.85-125.84Z"/>
    <path class="cls-1" d="M688.05,503.62c-20.04,0-36.35-16.31-36.35-36.35s16.31-36.35,36.35-36.35,36.35,16.31,36.35,36.35-16.31,36.35-36.35,36.35Z"/>
  </g>
</svg>