<?xml version="1.0" encoding="UTF-8"?>
<svg id="Livello_1" data-name="Livello 1" xmlns="http://www.w3.org/2000/svg" viewBox="0 0 1080 1080">
  <defs>
    <style>
      .cls-1 {
        fill: #fff;
      }
    </style>
  </defs>
  <path class="cls-1" d="M520.2,612.13h-137.98c34.89,35.28,91.73,65.07,145.04,79.18-5.88,5.49-13.72,15.29-17.64,21.95-55.66-17.25-116.42-52.53-153.27-94.08v102.7h-26.66v-104.66c-37.24,42.73-97.61,79.58-151.7,98.39-3.92-6.66-11.76-16.46-17.64-21.95,50.57-15.29,107.02-46.26,142.3-81.54h-134.85v-23.52h161.9v-30.58c-10.58.78-24.7.78-42.73.78-1.57-7.06-5.49-15.29-8.62-21.95,13.33.39,25.48.78,34.5.78,18.42,0,20.78,0,20.78-6.66v-58.02h-3.53c-36.46,37.63-97.22,71.74-148.57,88.59-3.53-6.27-10.98-15.68-16.86-20.78,45.47-12.94,97.61-38.42,132.5-67.82h-126.62v-22.34h192.86c-29.79-11.76-68.6-23.52-101.53-29.79l15.68-16.86c20.38,3.53,43.12,9.41,64.68,16.07,23.91-6.27,47.82-15.29,67.03-25.09h-203.45v-21.95h237.55l4.31-1.18,20.38,13.33c-1.18,1.57-3.92,2.74-5.88,3.14-20.78,15.29-52.53,31.36-86.63,43.12,11.37,3.92,21.56,8.23,29.79,12.15l-5.88,7.06h88.59l5.49-.39,18.03,3.92c-1.96,3.92-37.24,52.14-67.82,78.01l-23.13-9.8c14.11-12.15,30.97-31.36,45.86-49.39h-106.23v58.8c0,14.11-2.74,22.34-22.34,25.09l26.26,1.57c-.39,3.14-2.74,5.1-7.84,5.49v24.7h163.86v23.52Z"/>
  <path class="cls-1" d="M639.76,514.91v128.18c30.58,46.65,86.63,46.65,157.19,46.65,42.34,0,92.12-1.18,122.7-3.14-3.14,6.27-7.84,18.82-8.62,26.66-27.05,1.18-70.17,1.96-108.98,1.96-80.75,0-134.46,0-174.05-48.61-19.21,17.25-39.98,34.89-56.84,48.22.39,3.53-.78,5.1-3.53,6.27l-15.29-29.01c18.82-12.54,41.94-30.58,61.94-47.82v-104.27h-57.62v-25.09h83.1ZM581.36,367.91c26.26,16.86,56.45,42.73,70.17,61.94l-20.78,17.64c-12.94-19.6-42.73-46.26-68.99-63.9l19.6-15.68ZM693.86,471.79h67.03c2.74-10.98,5.49-23.91,7.45-35.67h-108.19v-22.74h70.95c-5.1-13.72-16.86-32.14-28.22-45.47l20.38-9.02c12.94,14.11,26.26,33.71,30.97,47.43l-14.5,7.06h82.71l-10.19-3.92c9.8-14.5,22.34-36.46,29.4-51.35l31.36,9.02c-1.18,2.35-3.92,3.53-8.23,3.92-7.45,12.15-19.6,29.4-30.18,42.34h78.01v22.74h-117.21c-2.74,10.58-6.66,23.91-10.58,35.67h93.3v193.25h-26.26v-13.72h-132.5v13.72h-25.48v-193.25ZM851.84,525.1v-32.14h-132.5v32.14h132.5ZM719.34,544.7v32.93h132.5v-32.93h-132.5ZM719.34,630.55h132.5v-33.32h-132.5v33.32Z"/>
</svg>