<?xml version="1.0" encoding="UTF-8"?>
<svg id="Livello_1" data-name="Livello 1" xmlns="http://www.w3.org/2000/svg" viewBox="0 0 1080 1080">
  <defs>
    <style>
      .cls-1 {
        fill: #fff;
      }
    </style>
  </defs>
  <g>
    <path class="cls-1" d="M540,862c-177.55,0-322-144.45-322-322s144.45-322,322-322,322,144.45,322,322-144.45,322-322,322ZM540,249.37c-160.25,0-290.63,130.38-290.63,290.63s130.38,290.63,290.63,290.63,290.63-130.38,290.63-290.63-130.38-290.63-290.63-290.63Z"/>
    <g>
      <path class="cls-1" d="M501.51,599.95l-8.59,19.71h0c-13.57,31.12-44.61,52.87-80.73,52.87-31.2,0-58.61-16.23-74.24-40.71h0s-40.31-61.54-40.31-61.54l26.31-40.41,50.68,78c7.82,12.46,21.68,20.75,37.47,20.75,18.11,0,33.68-10.89,40.51-26.48l12.11-27.86h-52.62s28.05-43.16,28.05-43.16h175.74c-20.5-24.63-36.9-52.8-48.14-83.46l-23.08,53.05h-47.98l46.24-106.31h-130.97s28.65-44.08,28.65-44.08h283.15l-28.65,44.08h-97.25c9.63,51.77,35.91,97.68,73.07,131.98l-31.13,47.89h-103l104.53,160.84h-51.93l-87.91-135.17Z"/>
      <path class="cls-1" d="M689.87,500.72c-21.53,0-39.04-17.52-39.04-39.04s17.52-39.04,39.04-39.04,39.04,17.52,39.04,39.04-17.52,39.04-39.04,39.04Z"/>
    </g>
  </g>
  <g>
    <path class="cls-1" d="M540,862c-177.55,0-322-144.45-322-322s144.45-322,322-322,322,144.45,322,322-144.45,322-322,322ZM540,249.37c-160.25,0-290.63,130.38-290.63,290.63s130.38,290.63,290.63,290.63,290.63-130.38,290.63-290.63-130.38-290.63-290.63-290.63Z"/>
    <g>
      <path class="cls-1" d="M512.7,596l-7.99,18.35h0c-12.63,28.97-41.53,49.22-75.16,49.22-29.04,0-54.56-15.11-69.12-37.9h0s-37.52-57.29-37.52-57.29l24.5-37.62,47.18,72.61c7.28,11.6,20.18,19.31,34.89,19.31,16.86,0,31.35-10.14,37.71-24.65l11.27-25.94h-48.98s26.12-40.18,26.12-40.18h163.6c-19.09-22.93-34.35-49.16-44.81-77.7l-21.48,49.39h-44.67l43.05-98.97h-121.93s26.67-41.03,26.67-41.03h263.6l-26.67,41.03h-90.54c8.96,48.19,33.43,90.94,68.03,122.87l-28.98,44.59h-95.89l97.31,149.73h-48.34l-81.85-125.84Z"/>
      <path class="cls-1" d="M688.05,503.62c-20.04,0-36.35-16.31-36.35-36.35s16.31-36.35,36.35-36.35,36.35,16.31,36.35,36.35-16.31,36.35-36.35,36.35Z"/>
    </g>
  </g>
</svg>