<?xml version="1.0" encoding="UTF-8"?>
<svg id="Livello_1" data-name="Livello 1" xmlns="http://www.w3.org/2000/svg" viewBox="0 0 1080 800">
  <defs>
    <style>
      .cls-1 {
        fill: #3c69ae;
      }
    </style>
  </defs>
  <g>
    <g>
      <path class="cls-1" d="M187.14,578.96l14.77-10.99c3.56,6.61,8.48,9.61,13.39,9.61,7.77,0,11.97-3.97,11.97-16.79v-62.32h21.73v64.13c0,18.49-9.59,33.74-30.83,33.74-14.7,0-24.36-5.74-31.02-17.38Z"/>
      <path class="cls-1" d="M267.82,550.04v-51.57h21.73v53.79c0,18.82,5.93,25.32,16.68,25.32s17.03-6.5,17.03-25.32v-53.79h20.95v51.57c0,32.27-13.11,46.3-37.98,46.3s-38.41-14.04-38.41-46.3Z"/>
      <path class="cls-1" d="M363.61,498.47h27.17c29.35,0,48.26,14.6,48.26,47.64s-18.91,48.47-47.05,48.47h-28.38v-96.1ZM389.46,577.08c16.3,0,27.32-7.99,27.32-30.98s-11.02-30.14-27.32-30.14h-4.12v61.12h4.12Z"/>
      <path class="cls-1" d="M449.93,546.11c0-31.4,17.73-49.41,43.65-49.41s43.65,18.13,43.65,49.41-17.73,50.24-43.65,50.24-43.65-18.84-43.65-50.24ZM514.96,546.11c0-19.27-8.27-30.65-21.38-30.65s-21.38,11.38-21.38,30.65,8.27,31.48,21.38,31.48,21.38-12.21,21.38-31.48Z"/>
      <path class="cls-1" d="M584.82,498.47h34.61c20.38,0,37.09,7.08,37.09,29.93s-16.71,31.59-37.09,31.59h-12.88v34.59h-21.73v-96.1ZM617.66,542.74c11.43,0,17.57-4.89,17.57-14.34s-6.14-12.68-17.57-12.68h-11.11v27.02h11.11ZM615.45,554.26l15.03-13.9,30.67,54.21h-24.31l-21.39-40.31Z"/>
      <path class="cls-1" d="M672.89,498.47h21.73v96.1h-21.73v-96.1Z"/>
      <path class="cls-1" d="M714.38,498.47h60.22v18.22h-38.49v19.3h32.77v18.22h-32.77v22.14h39.96v18.22h-61.69v-96.1Z"/>
      <path class="cls-1" d="M811.54,516.69h-26.45v-18.22h74.63v18.22h-26.45v77.88h-21.73v-77.88Z"/>
      <path class="cls-1" d="M871.13,498.47h21.73v96.1h-21.73v-96.1Z"/>
    </g>
    <g>
      <path class="cls-1" d="M187.14,667.65l9.35-23.71h4.64l-9.08,23.71h-4.91ZM191.54,662.44v-4.1h14.87v4.1h-14.87ZM205.87,667.65l-9.08-23.71h4.64l9.35,23.71h-4.91Z"/>
      <path class="cls-1" d="M220.68,668.06c-1.2,0-2.31-.15-3.35-.44-1.04-.29-1.96-.71-2.78-1.24-.81-.53-1.49-1.12-2.02-1.78-.53-.65-.88-1.34-1.03-2.07l4.54-1.35c.29.77.81,1.43,1.56,1.98.75.55,1.68.84,2.81.86,1.2.02,2.17-.24,2.93-.78.76-.54,1.13-1.24,1.13-2.1,0-.75-.3-1.37-.9-1.88-.6-.51-1.42-.9-2.46-1.17l-3.08-.81c-1.15-.29-2.17-.74-3.05-1.34-.88-.6-1.57-1.34-2.07-2.22-.5-.88-.75-1.91-.75-3.08,0-2.24.74-3.98,2.22-5.23,1.48-1.25,3.57-1.88,6.28-1.88,1.51,0,2.84.22,3.98.66,1.14.44,2.09,1.07,2.86,1.88.77.81,1.35,1.77,1.76,2.88l-4.5,1.39c-.27-.77-.77-1.42-1.49-1.96-.72-.54-1.64-.81-2.74-.81s-2.02.26-2.66.78c-.64.52-.97,1.25-.97,2.2,0,.75.25,1.33.76,1.76.51.43,1.2.76,2.08.98l3.12.78c2.03.5,3.61,1.39,4.74,2.68,1.13,1.29,1.69,2.72,1.69,4.3,0,1.4-.34,2.63-1.02,3.67-.68,1.05-1.66,1.87-2.95,2.46s-2.85.88-4.67.88Z"/>
      <path class="cls-1" d="M240.62,668.06c-1.2,0-2.31-.15-3.35-.44-1.04-.29-1.96-.71-2.78-1.24-.81-.53-1.49-1.12-2.02-1.78-.53-.65-.88-1.34-1.03-2.07l4.54-1.35c.29.77.81,1.43,1.56,1.98.75.55,1.68.84,2.81.86,1.2.02,2.17-.24,2.93-.78.76-.54,1.13-1.24,1.13-2.1,0-.75-.3-1.37-.9-1.88-.6-.51-1.42-.9-2.46-1.17l-3.08-.81c-1.15-.29-2.17-.74-3.05-1.34-.88-.6-1.57-1.34-2.07-2.22-.5-.88-.75-1.91-.75-3.08,0-2.24.74-3.98,2.22-5.23,1.48-1.25,3.57-1.88,6.28-1.88,1.51,0,2.84.22,3.98.66,1.14.44,2.09,1.07,2.86,1.88.77.81,1.35,1.77,1.76,2.88l-4.5,1.39c-.27-.77-.77-1.42-1.49-1.96-.72-.54-1.64-.81-2.74-.81s-2.02.26-2.66.78c-.64.52-.97,1.25-.97,2.2,0,.75.25,1.33.76,1.76.51.43,1.2.76,2.08.98l3.12.78c2.03.5,3.61,1.39,4.74,2.68,1.13,1.29,1.69,2.72,1.69,4.3,0,1.4-.34,2.63-1.02,3.67-.68,1.05-1.66,1.87-2.95,2.46s-2.85.88-4.67.88Z"/>
      <path class="cls-1" d="M263.34,668.06c-2.39,0-4.51-.53-6.35-1.58-1.84-1.05-3.28-2.5-4.32-4.34-1.04-1.84-1.56-3.95-1.56-6.32s.52-4.54,1.56-6.39c1.04-1.84,2.47-3.28,4.29-4.32,1.82-1.04,3.91-1.56,6.28-1.56s4.5.53,6.32,1.58c1.82,1.05,3.25,2.5,4.29,4.34,1.04,1.84,1.56,3.96,1.56,6.35s-.51,4.48-1.54,6.32c-1.03,1.84-2.45,3.29-4.27,4.34-1.82,1.05-3.9,1.58-6.25,1.58ZM263.34,663.83c1.44,0,2.72-.34,3.81-1.03,1.09-.69,1.95-1.63,2.57-2.83.62-1.2.93-2.57.93-4.13s-.32-2.97-.95-4.17c-.63-1.2-1.5-2.14-2.61-2.83-1.11-.69-2.39-1.03-3.86-1.03s-2.69.34-3.81,1.03c-1.12.69-1.99,1.63-2.62,2.83-.63,1.2-.95,2.59-.95,4.17s.32,2.94.95,4.13c.63,1.2,1.51,2.14,2.64,2.83,1.13.69,2.43,1.03,3.9,1.03Z"/>
      <path class="cls-1" d="M289.23,668.06c-2.3,0-4.35-.53-6.13-1.58-1.78-1.05-3.18-2.5-4.2-4.34s-1.52-3.96-1.52-6.35.51-4.51,1.52-6.35,2.41-3.29,4.18-4.34c1.77-1.05,3.81-1.58,6.11-1.58,1.63,0,3.14.29,4.54.86,1.4.58,2.62,1.38,3.68,2.4,1.05,1.03,1.86,2.21,2.42,3.54l-4.3,1.59c-.38-.84-.89-1.56-1.52-2.18-.63-.62-1.35-1.11-2.17-1.46-.81-.35-1.69-.53-2.64-.53-1.38,0-2.6.34-3.68,1.03-1.07.69-1.91,1.63-2.51,2.83-.6,1.2-.9,2.59-.9,4.17s.3,2.98.91,4.18c.61,1.21,1.46,2.16,2.54,2.85,1.08.69,2.33,1.03,3.73,1.03.97,0,1.86-.19,2.66-.56.8-.37,1.51-.89,2.13-1.54.62-.65,1.12-1.41,1.51-2.27l4.3,1.56c-.56,1.38-1.37,2.6-2.42,3.66-1.05,1.06-2.28,1.89-3.67,2.47-1.4.59-2.92.88-4.57.88Z"/>
      <path class="cls-1" d="M302.8,667.65v-23.71h4.64v23.71h-4.64Z"/>
      <path class="cls-1" d="M309.66,667.65l9.35-23.71h4.64l-9.08,23.71h-4.91ZM314.06,662.44v-4.1h14.87v4.1h-14.87ZM328.39,667.65l-9.08-23.71h4.64l9.35,23.71h-4.91Z"/>
      <path class="cls-1" d="M334.88,667.65v-4.34l12.84-15.04h-12.74v-4.34h18.73v4.34l-12.84,15.04h12.74v4.34h-18.73Z"/>
      <path class="cls-1" d="M357.2,667.65v-23.71h4.64v23.71h-4.64Z"/>
      <path class="cls-1" d="M377.44,668.06c-2.39,0-4.51-.53-6.35-1.58-1.84-1.05-3.28-2.5-4.32-4.34-1.04-1.84-1.56-3.95-1.56-6.32s.52-4.54,1.56-6.39c1.04-1.84,2.47-3.28,4.29-4.32,1.82-1.04,3.91-1.56,6.28-1.56s4.5.53,6.32,1.58c1.82,1.05,3.25,2.5,4.29,4.34,1.04,1.84,1.56,3.96,1.56,6.35s-.51,4.48-1.54,6.32c-1.03,1.84-2.45,3.29-4.27,4.34-1.82,1.05-3.9,1.58-6.25,1.58ZM377.44,663.83c1.44,0,2.72-.34,3.81-1.03,1.09-.69,1.95-1.63,2.57-2.83.62-1.2.93-2.57.93-4.13s-.32-2.97-.95-4.17c-.63-1.2-1.5-2.14-2.61-2.83-1.11-.69-2.39-1.03-3.86-1.03s-2.69.34-3.81,1.03c-1.12.69-1.99,1.63-2.62,2.83-.63,1.2-.95,2.59-.95,4.17s.32,2.94.95,4.13c.63,1.2,1.51,2.14,2.64,2.83,1.13.69,2.43,1.03,3.9,1.03Z"/>
      <path class="cls-1" d="M392.81,667.65v-23.71h4.84l11.58,15.92v-15.92h4.61v23.71h-4.61l-11.79-16.22v16.22h-4.64Z"/>
      <path class="cls-1" d="M418.52,667.65v-23.71h15.01v4.23h-10.37v5.39h8.94v4.13h-8.94v5.72h10.5v4.23h-15.14Z"/>
      <path class="cls-1" d="M454.49,668.06c-1.2,0-2.31-.15-3.35-.44-1.04-.29-1.96-.71-2.78-1.24-.81-.53-1.49-1.12-2.02-1.78-.53-.65-.88-1.34-1.03-2.07l4.54-1.35c.29.77.81,1.43,1.56,1.98.75.55,1.68.84,2.81.86,1.2.02,2.17-.24,2.93-.78.76-.54,1.13-1.24,1.13-2.1,0-.75-.3-1.37-.9-1.88-.6-.51-1.42-.9-2.46-1.17l-3.08-.81c-1.15-.29-2.17-.74-3.05-1.34-.88-.6-1.57-1.34-2.07-2.22-.5-.88-.75-1.91-.75-3.08,0-2.24.74-3.98,2.22-5.23,1.48-1.25,3.57-1.88,6.28-1.88,1.51,0,2.84.22,3.98.66,1.14.44,2.09,1.07,2.86,1.88.77.81,1.35,1.77,1.76,2.88l-4.5,1.39c-.27-.77-.77-1.42-1.49-1.96-.72-.54-1.64-.81-2.74-.81s-2.02.26-2.66.78c-.64.52-.97,1.25-.97,2.2,0,.75.25,1.33.76,1.76.51.43,1.2.76,2.08.98l3.12.78c2.03.5,3.61,1.39,4.74,2.68,1.13,1.29,1.69,2.72,1.69,4.3,0,1.4-.34,2.63-1.02,3.67-.68,1.05-1.66,1.87-2.95,2.46s-2.85.88-4.67.88Z"/>
      <path class="cls-1" d="M466.61,667.65v-23.71h8.81c1.67,0,3.15.33,4.44,1,1.29.67,2.29,1.59,3.01,2.78.72,1.19,1.08,2.56,1.08,4.12s-.35,2.9-1.05,4.1c-.7,1.2-1.66,2.14-2.88,2.83-1.22.69-2.63,1.03-4.23,1.03h-4.54v7.86h-4.64ZM471.25,655.53h4.44c1.04,0,1.89-.34,2.56-1.03.67-.69,1-1.58,1-2.66s-.37-1.96-1.1-2.64c-.73-.68-1.68-1.02-2.83-1.02h-4.06v7.35Z"/>
      <path class="cls-1" d="M497.72,668.06c-2.39,0-4.51-.53-6.35-1.58-1.84-1.05-3.28-2.5-4.32-4.34-1.04-1.84-1.56-3.95-1.56-6.32s.52-4.54,1.56-6.39c1.04-1.84,2.47-3.28,4.29-4.32,1.82-1.04,3.91-1.56,6.28-1.56s4.5.53,6.32,1.58c1.82,1.05,3.25,2.5,4.29,4.34,1.04,1.84,1.56,3.96,1.56,6.35s-.51,4.48-1.54,6.32c-1.03,1.84-2.45,3.29-4.27,4.34-1.82,1.05-3.9,1.58-6.25,1.58ZM497.72,663.83c1.44,0,2.72-.34,3.81-1.03,1.09-.69,1.95-1.63,2.57-2.83.62-1.2.93-2.57.93-4.13s-.32-2.97-.95-4.17c-.63-1.2-1.5-2.14-2.61-2.83-1.11-.69-2.39-1.03-3.86-1.03s-2.69.34-3.81,1.03c-1.12.69-1.99,1.63-2.62,2.83-.63,1.2-.95,2.59-.95,4.17s.32,2.94.95,4.13c.63,1.2,1.51,2.14,2.64,2.83,1.13.69,2.43,1.03,3.9,1.03Z"/>
      <path class="cls-1" d="M513.09,667.65v-23.71h8.81c1.67,0,3.15.33,4.44.98,1.29.66,2.29,1.55,3.01,2.69.72,1.14,1.08,2.47,1.08,3.98s-.38,2.82-1.13,3.98c-.76,1.16-1.79,2.07-3.1,2.71-1.31.64-2.8.97-4.47.97h-4v8.4h-4.64ZM517.73,655.02h4.2c.7,0,1.33-.15,1.88-.44.55-.29.99-.7,1.32-1.22.33-.52.49-1.11.49-1.76,0-1.02-.37-1.84-1.1-2.47-.73-.63-1.68-.95-2.83-.95h-3.96v6.84ZM526.13,667.65l-5.49-9.52,3.56-2.54,7.18,12.06h-5.25Z"/>
      <path class="cls-1" d="M539.25,667.65v-19.48h-7.11v-4.23h18.83v4.23h-7.08v19.48h-4.64Z"/>
      <path class="cls-1" d="M553.26,667.65v-23.71h4.64v23.71h-4.64Z"/>
      <path class="cls-1" d="M569.54,667.65l-9.45-23.71h4.98l9.01,23.71h-4.54ZM570.05,667.65l8.98-23.71h4.98l-9.42,23.71h-4.54Z"/>
      <path class="cls-1" d="M581.66,667.65l9.35-23.71h4.64l-9.08,23.71h-4.91ZM586.06,662.44v-4.1h14.87v4.1h-14.87ZM600.39,667.65l-9.08-23.71h4.64l9.35,23.71h-4.91Z"/>
      <path class="cls-1" d="M616.21,667.65v-23.71h7.59c2.42,0,4.56.51,6.42,1.52,1.86,1.02,3.32,2.41,4.37,4.18,1.05,1.77,1.58,3.82,1.58,6.15s-.52,4.35-1.58,6.13c-1.05,1.78-2.51,3.18-4.37,4.2-1.86,1.02-4,1.52-6.42,1.52h-7.59ZM620.85,663.32h2.95c1.08,0,2.09-.19,3.01-.58.93-.38,1.73-.91,2.42-1.59.69-.68,1.22-1.47,1.61-2.39.38-.91.58-1.9.58-2.96s-.19-2.05-.58-2.96c-.38-.91-.92-1.71-1.61-2.39-.69-.68-1.5-1.21-2.42-1.59-.93-.38-1.93-.58-3.01-.58h-2.95v15.04Z"/>
      <path class="cls-1" d="M639.44,667.65v-23.71h4.64v23.71h-4.64Z"/>
      <path class="cls-1" d="M648.76,667.65v-23.71h4.64v19.48h10.43v4.23h-15.07Z"/>
      <path class="cls-1" d="M666.13,667.65v-23.71h15.01v4.23h-10.37v5.39h8.94v4.13h-8.94v5.72h10.5v4.23h-15.14Z"/>
      <path class="cls-1" d="M690.45,667.65v-19.48h-7.11v-4.23h18.83v4.23h-7.08v19.48h-4.64Z"/>
      <path class="cls-1" d="M710.6,667.65v-19.48h-7.11v-4.23h18.83v4.23h-7.08v19.48h-4.64Z"/>
      <path class="cls-1" d="M719.77,667.65l9.35-23.71h4.64l-9.08,23.71h-4.91ZM724.18,662.44v-4.1h14.87v4.1h-14.87ZM738.51,667.65l-9.08-23.71h4.64l9.35,23.71h-4.91Z"/>
      <path class="cls-1" d="M745.6,667.65v-23.71h4.84l11.58,15.92v-15.92h4.61v23.71h-4.61l-11.79-16.22v16.22h-4.64Z"/>
      <path class="cls-1" d="M776.02,667.65v-19.48h-7.11v-4.23h18.83v4.23h-7.08v19.48h-4.64Z"/>
      <path class="cls-1" d="M790.03,667.65v-23.71h4.64v23.71h-4.64Z"/>
      <path class="cls-1" d="M807.15,668.06c-1.2,0-2.31-.15-3.35-.44-1.04-.29-1.96-.71-2.78-1.24-.81-.53-1.49-1.12-2.02-1.78-.53-.65-.88-1.34-1.03-2.07l4.54-1.35c.29.77.81,1.43,1.56,1.98.75.55,1.68.84,2.81.86,1.2.02,2.17-.24,2.93-.78.76-.54,1.13-1.24,1.13-2.1,0-.75-.3-1.37-.9-1.88-.6-.51-1.42-.9-2.46-1.17l-3.08-.81c-1.15-.29-2.17-.74-3.05-1.34-.88-.6-1.57-1.34-2.07-2.22-.5-.88-.75-1.91-.75-3.08,0-2.24.74-3.98,2.22-5.23,1.48-1.25,3.57-1.88,6.28-1.88,1.51,0,2.84.22,3.98.66,1.14.44,2.09,1.07,2.86,1.88.77.81,1.35,1.77,1.76,2.88l-4.5,1.39c-.27-.77-.77-1.42-1.49-1.96-.72-.54-1.64-.81-2.74-.81s-2.02.26-2.66.78c-.64.52-.97,1.25-.97,2.2,0,.75.25,1.33.76,1.76.51.43,1.2.76,2.08.98l3.12.78c2.03.5,3.61,1.39,4.74,2.68,1.13,1.29,1.69,2.72,1.69,4.3,0,1.4-.34,2.63-1.02,3.67-.68,1.05-1.66,1.87-2.95,2.46s-2.85.88-4.67.88Z"/>
      <path class="cls-1" d="M824.55,667.65v-19.48h-7.11v-4.23h18.83v4.23h-7.08v19.48h-4.64Z"/>
      <path class="cls-1" d="M838.56,667.65v-23.71h4.64v23.71h-4.64Z"/>
      <path class="cls-1" d="M858.42,668.06c-2.3,0-4.35-.53-6.13-1.58-1.78-1.05-3.18-2.5-4.2-4.34-1.02-1.84-1.52-3.96-1.52-6.35s.51-4.51,1.52-6.35c1.02-1.84,2.41-3.29,4.18-4.34,1.77-1.05,3.81-1.58,6.11-1.58,1.63,0,3.14.29,4.54.86,1.4.58,2.62,1.38,3.68,2.4,1.05,1.03,1.86,2.21,2.42,3.54l-4.3,1.59c-.38-.84-.89-1.56-1.52-2.18-.63-.62-1.35-1.11-2.17-1.46-.81-.35-1.69-.53-2.64-.53-1.38,0-2.6.34-3.68,1.03-1.07.69-1.91,1.63-2.51,2.83-.6,1.2-.9,2.59-.9,4.17s.3,2.98.91,4.18c.61,1.21,1.46,2.16,2.54,2.85,1.08.69,2.33,1.03,3.73,1.03.97,0,1.86-.19,2.66-.56.8-.37,1.51-.89,2.13-1.54.62-.65,1.12-1.41,1.51-2.27l4.3,1.56c-.56,1.38-1.37,2.6-2.42,3.66-1.05,1.06-2.28,1.89-3.67,2.47-1.4.59-2.92.88-4.57.88Z"/>
      <path class="cls-1" d="M869.22,667.65l9.35-23.71h4.64l-9.08,23.71h-4.91ZM873.62,662.44v-4.1h14.87v4.1h-14.87ZM887.95,667.65l-9.08-23.71h4.64l9.35,23.71h-4.91Z"/>
    </g>
  </g>
  <g>
    <path class="cls-1" d="M540,441.78c-85.42,0-154.92-69.5-154.92-154.92s69.5-154.92,154.92-154.92,154.92,69.5,154.92,154.92-69.5,154.92-154.92,154.92ZM540,147.03c-77.1,0-139.83,62.73-139.83,139.83s62.73,139.83,139.83,139.83,139.83-62.73,139.83-139.83-62.73-139.83-139.83-139.83Z"/>
    <g>
      <path class="cls-1" d="M526.87,313.8l-3.85,8.83h0c-6.08,13.94-19.98,23.68-36.16,23.68-13.97,0-26.25-7.27-33.25-18.23h0s-18.05-27.56-18.05-27.56l11.79-18.1,22.7,34.94c3.5,5.58,9.71,9.29,16.78,9.29,8.11,0,15.08-4.88,18.14-11.86l5.42-12.48h-23.57s12.57-19.33,12.57-19.33h78.71c-9.18-11.03-16.53-23.65-21.56-37.38l-10.34,23.76h-21.49l20.71-47.62h-58.66s12.83-19.74,12.83-19.74h126.82l-12.83,19.74h-43.56c4.31,23.19,16.08,43.75,32.73,59.11l-13.94,21.45h-46.13l46.82,72.04h-23.26l-39.38-60.54Z"/>
      <path class="cls-1" d="M611.23,269.36c-9.64,0-17.49-7.85-17.49-17.49s7.85-17.49,17.49-17.49,17.49,7.85,17.49,17.49-7.85,17.49-17.49,17.49Z"/>
    </g>
  </g>
</svg>