<?xml version="1.0" encoding="UTF-8"?>
<svg id="Livello_1" data-name="Livello 1" xmlns="http://www.w3.org/2000/svg" viewBox="0 0 1080 250">
  <defs>
    <style>
      .cls-1 {
        fill: #3c69ae;
      }
    </style>
  </defs>
  <g>
    <g>
      <path class="cls-1" d="M601.53,77.31l15.64-39.23h6.56l-15.3,39.23h-6.89ZM608.88,67.67v-5.77h23.48v5.77h-23.48ZM632.86,77.31l-15.3-39.23h6.5l15.69,39.23h-6.89Z"/>
      <path class="cls-1" d="M656.24,77.98c-2.06,0-3.93-.24-5.63-.73-1.7-.48-3.19-1.16-4.48-2.02-1.29-.86-2.35-1.82-3.19-2.89-.84-1.06-1.43-2.18-1.77-3.33l6.39-1.96c.48,1.38,1.44,2.6,2.86,3.64,1.42,1.05,3.18,1.59,5.27,1.62,2.43,0,4.35-.5,5.77-1.51,1.42-1.01,2.13-2.33,2.13-3.98,0-1.49-.6-2.72-1.79-3.67-1.2-.95-2.8-1.69-4.82-2.21l-4.82-1.23c-1.83-.48-3.48-1.2-4.96-2.13-1.48-.93-2.63-2.11-3.47-3.53-.84-1.42-1.26-3.1-1.26-5.04,0-3.66,1.2-6.51,3.59-8.55,2.39-2.04,5.81-3.05,10.26-3.05,2.5,0,4.7.38,6.59,1.15,1.89.77,3.45,1.81,4.68,3.14,1.23,1.33,2.15,2.83,2.75,4.51l-6.28,2.02c-.56-1.49-1.53-2.73-2.91-3.7-1.38-.97-3.1-1.46-5.16-1.46s-3.8.5-5.02,1.51c-1.21,1.01-1.82,2.41-1.82,4.2,0,1.46.48,2.59,1.43,3.39.95.8,2.25,1.41,3.89,1.82l4.82,1.18c3.51.86,6.24,2.34,8.18,4.43,1.94,2.09,2.91,4.41,2.91,6.95,0,2.24-.54,4.22-1.63,5.94-1.08,1.72-2.68,3.06-4.79,4.04-2.11.97-4.68,1.46-7.71,1.46Z"/>
      <path class="cls-1" d="M689.25,77.98c-2.06,0-3.93-.24-5.63-.73-1.7-.48-3.19-1.16-4.48-2.02-1.29-.86-2.35-1.82-3.19-2.89-.84-1.06-1.43-2.18-1.77-3.33l6.39-1.96c.48,1.38,1.44,2.6,2.86,3.64,1.42,1.05,3.18,1.59,5.27,1.62,2.43,0,4.35-.5,5.77-1.51,1.42-1.01,2.13-2.33,2.13-3.98,0-1.49-.6-2.72-1.79-3.67-1.2-.95-2.8-1.69-4.82-2.21l-4.82-1.23c-1.83-.48-3.48-1.2-4.96-2.13-1.48-.93-2.63-2.11-3.47-3.53-.84-1.42-1.26-3.1-1.26-5.04,0-3.66,1.2-6.51,3.59-8.55,2.39-2.04,5.81-3.05,10.26-3.05,2.5,0,4.7.38,6.59,1.15,1.89.77,3.45,1.81,4.68,3.14,1.23,1.33,2.15,2.83,2.75,4.51l-6.28,2.02c-.56-1.49-1.53-2.73-2.91-3.7-1.38-.97-3.1-1.46-5.16-1.46s-3.8.5-5.02,1.51c-1.21,1.01-1.82,2.41-1.82,4.2,0,1.46.48,2.59,1.43,3.39.95.8,2.25,1.41,3.89,1.82l4.82,1.18c3.51.86,6.24,2.34,8.18,4.43,1.94,2.09,2.91,4.41,2.91,6.95,0,2.24-.54,4.22-1.63,5.94-1.08,1.72-2.68,3.06-4.79,4.04-2.11.97-4.68,1.46-7.71,1.46Z"/>
      <path class="cls-1" d="M726.56,77.98c-3.89,0-7.32-.86-10.31-2.58-2.99-1.72-5.33-4.11-7.03-7.17-1.7-3.06-2.55-6.58-2.55-10.54s.85-7.46,2.55-10.51c1.7-3.04,4.03-5.44,6.98-7.17,2.95-1.74,6.35-2.61,10.2-2.61s7.31.87,10.28,2.61c2.97,1.74,5.29,4.13,6.95,7.17,1.66,3.05,2.49,6.55,2.49,10.51s-.83,7.47-2.49,10.54c-1.66,3.06-3.96,5.46-6.89,7.17-2.93,1.72-6.32,2.58-10.17,2.58ZM726.56,72.04c2.54,0,4.78-.62,6.73-1.85,1.94-1.23,3.47-2.92,4.57-5.07,1.1-2.15,1.65-4.62,1.65-7.43s-.56-5.23-1.68-7.4c-1.12-2.17-2.66-3.86-4.62-5.07-1.96-1.21-4.23-1.82-6.81-1.82s-4.79.61-6.75,1.82c-1.96,1.21-3.51,2.9-4.65,5.04-1.14,2.15-1.71,4.62-1.71,7.43s.57,5.28,1.71,7.43c1.14,2.15,2.71,3.84,4.71,5.07,2,1.23,4.29,1.85,6.87,1.85Z"/>
      <path class="cls-1" d="M769.18,77.98c-3.77,0-7.13-.87-10.06-2.61-2.93-1.74-5.23-4.13-6.89-7.17-1.66-3.04-2.49-6.55-2.49-10.51s.83-7.46,2.49-10.51c1.66-3.04,3.95-5.44,6.87-7.17,2.91-1.74,6.26-2.61,10.03-2.61,2.54,0,4.93.46,7.17,1.37,2.24.92,4.23,2.18,5.97,3.78,1.74,1.61,3.07,3.47,4.01,5.6l-5.94,2.41c-.67-1.42-1.58-2.68-2.72-3.78-1.14-1.1-2.44-1.95-3.89-2.55-1.46-.6-2.99-.9-4.6-.9-2.47,0-4.66.62-6.59,1.85-1.92,1.23-3.44,2.92-4.54,5.07-1.1,2.15-1.65,4.62-1.65,7.43s.55,5.29,1.65,7.45c1.1,2.17,2.63,3.87,4.6,5.1,1.96,1.23,4.19,1.85,6.7,1.85,1.64,0,3.19-.33,4.62-.98,1.44-.65,2.73-1.56,3.87-2.72,1.14-1.16,2.05-2.5,2.72-4.04l5.94,2.41c-.93,2.21-2.26,4.16-3.98,5.86-1.72,1.7-3.72,3.02-6,3.95-2.28.93-4.71,1.4-7.29,1.4Z"/>
      <path class="cls-1" d="M791.48,77.31v-39.23h6.5v39.23h-6.5Z"/>
      <path class="cls-1" d="M802,77.31l15.64-39.23h6.56l-15.3,39.23h-6.89ZM809.34,67.67v-5.77h23.48v5.77h-23.48ZM833.33,77.31l-15.3-39.23h6.5l15.69,39.23h-6.89Z"/>
      <path class="cls-1" d="M843.09,77.31v-6.05l22.64-27.12h-22.47v-6.05h30.82v6.05l-22.64,27.12h22.47v6.05h-30.82Z"/>
      <path class="cls-1" d="M879.46,77.31v-39.23h6.5v39.23h-6.5Z"/>
      <path class="cls-1" d="M911.7,77.98c-3.89,0-7.32-.86-10.31-2.58-2.99-1.72-5.33-4.11-7.03-7.17-1.7-3.06-2.55-6.58-2.55-10.54s.85-7.46,2.55-10.51c1.7-3.04,4.03-5.44,6.98-7.17,2.95-1.74,6.35-2.61,10.2-2.61s7.31.87,10.28,2.61c2.97,1.74,5.29,4.13,6.95,7.17,1.66,3.05,2.49,6.55,2.49,10.51s-.83,7.47-2.49,10.54c-1.66,3.06-3.96,5.46-6.89,7.17-2.93,1.72-6.32,2.58-10.17,2.58ZM911.7,72.04c2.54,0,4.78-.62,6.73-1.85,1.94-1.23,3.47-2.92,4.57-5.07,1.1-2.15,1.65-4.62,1.65-7.43s-.56-5.23-1.68-7.4c-1.12-2.17-2.66-3.86-4.62-5.07-1.96-1.21-4.23-1.82-6.81-1.82s-4.79.61-6.75,1.82c-1.96,1.21-3.51,2.9-4.65,5.04-1.14,2.15-1.71,4.62-1.71,7.43s.57,5.28,1.71,7.43c1.14,2.15,2.71,3.84,4.71,5.07,2,1.23,4.29,1.85,6.87,1.85Z"/>
      <path class="cls-1" d="M937.13,77.31v-39.23h6.73l20.85,28.36v-28.36h6.5v39.23h-6.5l-21.07-28.69v28.69h-6.5Z"/>
      <path class="cls-1" d="M979.3,77.31v-39.23h24.15v5.94h-17.65v10.42h15.58v5.83h-15.58v11.1h17.82v5.94h-24.32Z"/>
      <path class="cls-1" d="M618.57,145.23c-2.06,0-3.93-.24-5.63-.73-1.7-.49-3.19-1.16-4.48-2.02-1.29-.86-2.35-1.82-3.19-2.89-.84-1.06-1.43-2.18-1.77-3.33l6.39-1.96c.48,1.38,1.44,2.6,2.86,3.64,1.42,1.05,3.18,1.59,5.27,1.63,2.43,0,4.35-.5,5.77-1.51,1.42-1.01,2.13-2.33,2.13-3.98,0-1.49-.6-2.72-1.79-3.67-1.2-.95-2.8-1.69-4.82-2.21l-4.82-1.23c-1.83-.49-3.48-1.2-4.96-2.13-1.48-.93-2.63-2.11-3.47-3.53-.84-1.42-1.26-3.1-1.26-5.04,0-3.66,1.2-6.51,3.59-8.55,2.39-2.04,5.81-3.05,10.26-3.05,2.5,0,4.7.38,6.59,1.15,1.89.77,3.45,1.81,4.68,3.14,1.23,1.33,2.15,2.83,2.75,4.51l-6.28,2.02c-.56-1.49-1.53-2.73-2.91-3.7-1.38-.97-3.1-1.46-5.16-1.46s-3.8.5-5.02,1.51c-1.21,1.01-1.82,2.41-1.82,4.2,0,1.46.48,2.59,1.43,3.39.95.8,2.25,1.41,3.89,1.82l4.82,1.18c3.51.86,6.24,2.34,8.18,4.43,1.94,2.09,2.91,4.41,2.91,6.95,0,2.24-.54,4.22-1.63,5.94-1.08,1.72-2.68,3.06-4.79,4.04-2.11.97-4.68,1.46-7.71,1.46Z"/>
      <path class="cls-1" d="M638.8,144.56v-39.23h13.84c2.69,0,5.06.54,7.12,1.62,2.05,1.08,3.66,2.59,4.82,4.51,1.16,1.92,1.74,4.16,1.74,6.7s-.54,4.67-1.63,6.61c-1.08,1.94-2.59,3.47-4.51,4.57-1.92,1.1-4.16,1.65-6.7,1.65h-8.18v13.56h-6.5ZM645.3,125h8.07c1.87,0,3.4-.64,4.6-1.91,1.2-1.27,1.79-2.91,1.79-4.93s-.67-3.72-2.02-4.99c-1.35-1.27-3.08-1.91-5.21-1.91h-7.23v13.73Z"/>
      <path class="cls-1" d="M689.13,145.23c-3.89,0-7.32-.86-10.31-2.58-2.99-1.72-5.33-4.11-7.03-7.17-1.7-3.06-2.55-6.57-2.55-10.54s.85-7.46,2.55-10.51c1.7-3.04,4.03-5.44,6.98-7.17,2.95-1.74,6.35-2.61,10.2-2.61s7.31.87,10.28,2.61c2.97,1.74,5.29,4.13,6.95,7.17,1.66,3.05,2.49,6.55,2.49,10.51s-.83,7.47-2.49,10.54c-1.66,3.06-3.96,5.46-6.89,7.17-2.93,1.72-6.32,2.58-10.17,2.58ZM689.13,139.29c2.54,0,4.78-.62,6.73-1.85,1.94-1.23,3.47-2.92,4.57-5.07,1.1-2.15,1.65-4.62,1.65-7.43s-.56-5.23-1.68-7.4c-1.12-2.17-2.66-3.86-4.62-5.07-1.96-1.21-4.23-1.82-6.81-1.82s-4.79.61-6.75,1.82c-1.96,1.21-3.51,2.9-4.65,5.04-1.14,2.15-1.71,4.62-1.71,7.43s.57,5.28,1.71,7.43c1.14,2.15,2.71,3.84,4.71,5.07,2,1.23,4.29,1.85,6.87,1.85Z"/>
      <path class="cls-1" d="M714.56,144.56v-39.23h13.84c2.69,0,5.06.52,7.12,1.57,2.05,1.05,3.66,2.49,4.82,4.34,1.16,1.85,1.74,3.99,1.74,6.42s-.61,4.58-1.82,6.45c-1.21,1.87-2.89,3.33-5.02,4.4-2.13,1.07-4.54,1.6-7.23,1.6h-6.95v14.46h-6.5ZM721.06,124.11h7.62c1.27,0,2.4-.28,3.39-.84s1.79-1.33,2.41-2.3c.62-.97.93-2.07.93-3.31,0-1.87-.67-3.4-2.02-4.6-1.35-1.2-3.08-1.79-5.21-1.79h-7.12v12.83ZM736.31,144.56l-9.19-15.92,5.04-3.47,11.49,19.39h-7.34Z"/>
      <path class="cls-1" d="M757,144.56v-33.29h-12.05v-5.94h30.6v5.94h-12.05v33.29h-6.5Z"/>
      <path class="cls-1" d="M779.6,144.56v-39.23h6.5v39.23h-6.5Z"/>
      <path class="cls-1" d="M805.94,144.56l-15.86-39.23h6.89l15.36,39.23h-6.39ZM806.62,144.56l15.36-39.23h6.95l-15.86,39.23h-6.44Z"/>
      <path class="cls-1" d="M824.99,144.56l15.64-39.23h6.56l-15.3,39.23h-6.89ZM832.33,134.92v-5.77h23.48v5.77h-23.48ZM856.31,144.56l-15.3-39.23h6.5l15.69,39.23h-6.89Z"/>
      <path class="cls-1" d="M605.68,211.81v-39.23h12.33c3.85,0,7.26.83,10.23,2.49,2.97,1.66,5.3,3.97,7.01,6.92,1.7,2.95,2.55,6.35,2.55,10.2s-.85,7.19-2.55,10.14c-1.7,2.95-4.04,5.27-7.01,6.95-2.97,1.68-6.38,2.52-10.23,2.52h-12.33ZM612.18,205.76h5.83c1.83,0,3.55-.35,5.16-1.04,1.61-.69,3.01-1.65,4.2-2.89,1.2-1.23,2.13-2.67,2.8-4.31.67-1.64,1.01-3.42,1.01-5.32s-.34-3.68-1.01-5.32c-.67-1.64-1.61-3.08-2.8-4.32-1.2-1.23-2.6-2.19-4.2-2.89-1.61-.69-3.33-1.04-5.16-1.04h-5.83v27.12Z"/>
      <path class="cls-1" d="M643.61,211.81v-39.23h6.5v39.23h-6.5Z"/>
      <path class="cls-1" d="M658.19,211.81v-39.23h6.5v33.29h17.77v5.94h-24.27Z"/>
      <path class="cls-1" d="M686.57,211.81v-39.23h24.15v5.94h-17.65v10.42h15.58v5.83h-15.58v11.1h17.82v5.94h-24.32Z"/>
      <path class="cls-1" d="M726.65,211.81v-33.29h-12.05v-5.94h30.6v5.94h-12.05v33.29h-6.5Z"/>
      <path class="cls-1" d="M759.5,211.81v-33.29h-12.05v-5.94h30.6v5.94h-12.05v33.29h-6.5Z"/>
      <path class="cls-1" d="M773.73,211.81l15.64-39.23h6.56l-15.3,39.23h-6.89ZM781.07,202.17v-5.77h23.48v5.77h-23.48ZM805.05,211.81l-15.3-39.23h6.5l15.69,39.23h-6.89Z"/>
      <path class="cls-1" d="M815.9,211.81v-39.23h6.73l20.85,28.36v-28.36h6.5v39.23h-6.5l-21.07-28.69v28.69h-6.5Z"/>
      <path class="cls-1" d="M866.11,211.81v-33.29h-12.05v-5.94h30.6v5.94h-12.05v33.29h-6.5Z"/>
      <path class="cls-1" d="M888.71,211.81v-39.23h6.5v39.23h-6.5Z"/>
      <path class="cls-1" d="M915.88,212.48c-2.06,0-3.93-.24-5.63-.73-1.7-.49-3.19-1.16-4.48-2.02-1.29-.86-2.35-1.82-3.19-2.89-.84-1.06-1.43-2.18-1.77-3.33l6.39-1.96c.48,1.38,1.44,2.6,2.86,3.64,1.42,1.05,3.18,1.59,5.27,1.63,2.43,0,4.35-.5,5.77-1.51,1.42-1.01,2.13-2.33,2.13-3.98,0-1.49-.6-2.72-1.79-3.67-1.2-.95-2.8-1.69-4.82-2.21l-4.82-1.23c-1.83-.49-3.48-1.2-4.96-2.13-1.48-.93-2.63-2.11-3.47-3.53s-1.26-3.1-1.26-5.04c0-3.66,1.2-6.51,3.59-8.55,2.39-2.04,5.81-3.05,10.26-3.05,2.5,0,4.7.38,6.59,1.15,1.89.77,3.45,1.81,4.68,3.14,1.23,1.33,2.15,2.83,2.75,4.51l-6.28,2.02c-.56-1.49-1.53-2.73-2.91-3.7-1.38-.97-3.1-1.46-5.16-1.46s-3.8.5-5.02,1.51c-1.21,1.01-1.82,2.41-1.82,4.2,0,1.46.48,2.59,1.43,3.39.95.8,2.25,1.41,3.89,1.82l4.82,1.18c3.51.86,6.24,2.34,8.18,4.43,1.94,2.09,2.91,4.41,2.91,6.95,0,2.24-.54,4.22-1.63,5.94-1.08,1.72-2.68,3.06-4.79,4.04-2.11.97-4.68,1.46-7.71,1.46Z"/>
      <path class="cls-1" d="M944.8,211.81v-33.29h-12.05v-5.94h30.6v5.94h-12.05v33.29h-6.5Z"/>
      <path class="cls-1" d="M967.4,211.81v-39.23h6.5v39.23h-6.5Z"/>
      <path class="cls-1" d="M999.3,212.48c-3.77,0-7.13-.87-10.06-2.61-2.93-1.74-5.23-4.13-6.89-7.17-1.66-3.05-2.49-6.55-2.49-10.51s.83-7.46,2.49-10.51c1.66-3.05,3.95-5.44,6.87-7.17,2.91-1.74,6.26-2.61,10.03-2.61,2.54,0,4.93.46,7.17,1.37s4.23,2.18,5.97,3.78c1.74,1.61,3.07,3.47,4.01,5.6l-5.94,2.41c-.67-1.42-1.58-2.68-2.72-3.78-1.14-1.1-2.44-1.95-3.89-2.55-1.46-.6-2.99-.9-4.6-.9-2.47,0-4.66.62-6.59,1.85s-3.44,2.92-4.54,5.07c-1.1,2.15-1.65,4.62-1.65,7.43s.55,5.29,1.65,7.45,2.63,3.87,4.6,5.1,4.19,1.85,6.7,1.85c1.64,0,3.19-.33,4.62-.98,1.44-.65,2.73-1.56,3.87-2.72s2.05-2.5,2.72-4.04l5.94,2.41c-.93,2.2-2.26,4.16-3.98,5.86-1.72,1.7-3.72,3.02-6,3.95-2.28.93-4.71,1.4-7.29,1.4Z"/>
      <path class="cls-1" d="M1017.13,211.81l15.64-39.23h6.56l-15.3,39.23h-6.89ZM1024.47,202.17v-5.77h23.48v5.77h-23.48ZM1048.46,211.81l-15.3-39.23h6.5l15.69,39.23h-6.89Z"/>
    </g>
    <g>
      <path class="cls-1" d="M281.56,99.7l11.42-8.5c2.75,5.11,6.56,7.43,10.36,7.43,6.01,0,9.26-3.07,9.26-12.99v-48.22h16.81v49.61c0,14.31-7.42,26.11-23.85,26.11-11.37,0-18.85-4.44-24-13.45Z"/>
      <path class="cls-1" d="M341.85,77.33v-39.9h16.81v41.62c0,14.56,4.59,19.59,12.91,19.59s13.18-5.03,13.18-19.59v-41.62h16.21v39.9c0,24.96-10.14,35.82-29.38,35.82s-29.72-10.86-29.72-35.82Z"/>
      <path class="cls-1" d="M413.81,37.43h21.02c22.71,0,37.34,11.3,37.34,36.85s-14.63,37.5-36.4,37.5h-21.96V37.43ZM433.81,98.25c12.61,0,21.13-6.18,21.13-23.96s-8.52-23.32-21.13-23.32h-3.19v47.28h3.19Z"/>
      <path class="cls-1" d="M480.36,74.29c0-24.29,13.72-38.22,33.77-38.22s33.77,14.02,33.77,38.22-13.72,38.87-33.77,38.87-33.77-14.57-33.77-38.87ZM530.67,74.29c0-14.91-6.4-23.71-16.54-23.71s-16.54,8.8-16.54,23.71,6.4,24.35,16.54,24.35,16.54-9.45,16.54-24.35Z"/>
      <path class="cls-1" d="M288.52,138.13h26.78c15.77,0,28.7,5.48,28.7,23.15s-12.93,24.44-28.7,24.44h-9.97v26.76h-16.81v-74.35ZM313.92,172.38c8.84,0,13.59-3.78,13.59-11.1s-4.75-9.81-13.59-9.81h-8.6v20.9h8.6ZM312.22,181.3l11.63-10.76,23.73,41.94h-18.81l-16.55-31.19Z"/>
      <path class="cls-1" d="M355.73,138.13h16.81v74.35h-16.81v-74.35Z"/>
      <path class="cls-1" d="M385.56,138.13h46.59v14.1h-29.78v14.93h25.35v14.1h-25.35v17.13h30.92v14.1h-47.73v-74.35Z"/>
      <path class="cls-1" d="M461.87,152.23h-20.46v-14.1h57.74v14.1h-20.46v60.25h-16.81v-60.25Z"/>
      <path class="cls-1" d="M507.25,138.13h16.81v74.35h-16.81v-74.35Z"/>
    </g>
  </g>
  <g>
    <path class="cls-1" d="M136.84,237.19c-61.86,0-112.19-50.33-112.19-112.19S74.98,12.81,136.84,12.81s112.19,50.33,112.19,112.19-50.33,112.19-112.19,112.19ZM136.84,23.74c-55.83,0-101.26,45.43-101.26,101.26s45.43,101.26,101.26,101.26,101.26-45.43,101.26-101.26S192.68,23.74,136.84,23.74Z"/>
    <g>
      <path class="cls-1" d="M127.41,144.11l-2.73,6.26h0c-4.31,9.88-14.16,16.78-25.62,16.78-9.9,0-18.6-5.15-23.56-12.92h0s-12.79-19.53-12.79-19.53l8.35-12.83,16.08,24.76c2.48,3.95,6.88,6.58,11.89,6.58,5.75,0,10.69-3.46,12.86-8.4l3.84-8.84h-16.7s8.9-13.7,8.9-13.7h55.77c-6.51-7.82-11.71-16.76-15.28-26.49l-7.32,16.84h-15.23l14.68-33.74h-41.57s9.09-13.99,9.09-13.99h89.87l-9.09,13.99h-30.87c3.06,16.43,11.4,31,23.19,41.89l-9.88,15.2h-32.69l33.18,51.05h-16.48l-27.9-42.9Z"/>
      <path class="cls-1" d="M187.19,112.62c-6.83,0-12.39-5.56-12.39-12.39s5.56-12.39,12.39-12.39,12.39,5.56,12.39,12.39-5.56,12.39-12.39,12.39Z"/>
    </g>
  </g>
</svg>