<?xml version="1.0" encoding="UTF-8"?>
<svg id="Livello_1" data-name="Livello 1" xmlns="http://www.w3.org/2000/svg" viewBox="0 0 1080 1080">
  <defs>
    <style>
      .cls-1 {
        fill: #3c69ae;
      }
    </style>
  </defs>
  <g>
    <path class="cls-1" d="M705.5,506.58c-22.2,0-40.26-18.06-40.26-40.26s18.06-40.26,40.26-40.26,40.26,18.06,40.26,40.26-18.06,40.26-40.26,40.26Z"/>
    <path class="cls-1" d="M601.77,748.29l-90.8-139.61-8.8,20.44c-13.44,30.86-42.67,51.64-76.28,54.23-2.42.19-4.82.29-7.22.29-31.12,0-59.71-15.81-76.5-42.28l-41.33-63.12,27.12-41.7,52.46,80.71c8.37,13.27,22.66,21.2,38.2,21.2,1.26,0,2.52-.05,3.8-.15,17.13-1.3,31.46-11.49,38.33-27.26l12.39-28.59h-54.27l29.01-44.5h180.88l-3.34-4.22c-18.33-23.16-33.47-49.44-43.78-76.02l-2.29-5.9-23.93,54.92h-49.33l47.62-109.37h-135.18l29.8-45.84h292.02l-29.8,45.84h-99.58c9.05,56.88,36.34,99.09,74.82,135.73l-31.93,49.26-106.31.11,107.79,165.84h-53.54Z"/>
  </g>
  <g>
    <path class="cls-1" d="M106.27,391.76l7.74-20.91,86.29,4.35-6.85,18.49-42.9-4.38c-8.52-.72-18.43-2.03-27.25-2.95l-.18.47c7.47,4.89,15.74,10.3,22.68,15.31l35.39,24.65-6.62,17.87-68.31-52.9ZM148.51,416.81l13.77-37.2,13.59,5.03-13.78,37.19-13.58-5.03Z"/>
    <path class="cls-1" d="M197.72,361.44c-5.78-3.24-7.89-9.9-4.74-15.53,3.16-5.62,9.95-7.29,15.72-4.05,5.74,3.22,7.85,9.89,4.7,15.51-3.16,5.62-9.94,7.29-15.68,4.07Z"/>
    <path class="cls-1" d="M215.13,329.16l-3.6-16.28c7.62-1.53,15.04-5.41,19.18-10.78,4.75-6.16,4.64-11.05.77-14.03-4.11-3.17-8.29-.47-15.03,3.43l-10.15,5.7c-7.96,4.64-18.46,6.77-27.95-.53-10.82-8.33-12.02-24.66-1.55-38.25,5.79-7.52,14.81-13.1,24.73-14.41l3.57,14.62c-6.61,1.76-11.58,4.45-15.55,9.61-3.92,5.09-4.3,9.96-.56,12.84,4,3.09,8.75-.07,15.41-4.02l9.78-5.73c9.36-5.49,18.51-6.38,27.74.73,10.84,8.36,13.28,24.63,1.29,40.19-6.54,8.5-16.71,15.05-28.07,16.92Z"/>
    <path class="cls-1" d="M263.58,270.71c-4.61-4.76-4.72-11.75-.09-16.23,4.63-4.48,11.61-4.13,16.22.62,4.58,4.73,4.69,11.72.06,16.2-4.63,4.48-11.61,4.14-16.19-.59Z"/>
    <path class="cls-1" d="M250.89,183.48l19.03-13.45c20.56-14.52,41.04-13.65,57.39,9.49,16.35,23.15,10.73,43.32-8.98,57.24l-19.89,14.05-47.55-67.34ZM307.9,225.77c11.42-8.07,15.19-19.12,3.81-35.22-11.37-16.1-22.63-15.67-34.06-7.6l-2.89,2.04,30.24,42.82,2.89-2.04Z"/>
    <path class="cls-1" d="M356.36,200.59c-2.98-5.92-1-12.63,4.75-15.52,5.76-2.9,12.32-.49,15.3,5.43,2.96,5.87.98,12.58-4.77,15.48-5.76,2.9-12.32.49-15.28-5.39Z"/>
    <path class="cls-1" d="M412.88,171.21l9.92-12.29c4.37,4.73,9.1,6.17,13.18,5.11,6.46-1.66,9.09-5.86,6.34-16.51l-13.35-51.77,18.05-4.65,13.74,53.27c3.96,15.36-.74,30.08-18.38,34.63-12.21,3.15-21.46.44-29.49-7.8Z"/>
    <path class="cls-1" d="M480.29,129.77l-3.2-44.11,18.58-1.35,3.34,46.02c1.17,16.1,6.64,21.3,15.84,20.63,9.24-.67,14.17-6.62,13-22.72l-3.34-46.01,17.92-1.3,3.2,44.12c2.01,27.6-8.34,40.42-29.61,41.96-21.27,1.55-33.73-9.63-35.73-37.23Z"/>
    <path class="cls-1" d="M575.92,82.69l23.06,3.36c24.91,3.63,39.16,18.36,35.07,46.39-4.09,28.04-22.04,38.8-45.92,35.32l-24.09-3.51,11.88-81.56ZM588.14,152.6c13.84,2.02,24.17-3.41,27.01-22.91,2.84-19.5-5.63-26.94-19.46-28.96l-3.5-.51-7.56,51.87,3.5.51Z"/>
    <path class="cls-1" d="M653.17,137.06c9.61-25.16,29.33-34.16,50.1-26.24,20.77,7.93,29.43,27.88,19.86,52.95-9.61,25.16-29.58,34.84-50.35,26.9-20.77-7.93-29.22-28.45-19.61-53.61ZM705.29,156.96c5.9-15.44,2.75-27.09-7.76-31.1-10.51-4.01-20.62,2.57-26.52,18.01-5.89,15.44-3,27.75,7.51,31.77,10.51,4.01,20.87-3.25,26.77-18.69Z"/>
    <path class="cls-1" d="M795.48,159.41l23.53,18.1c13.86,10.66,21.51,24.2,9.57,39.74-11.55,15.01-27.88,12.73-41.73,2.08l-8.76-6.74-18.08,23.51-14.77-11.36,50.26-65.33ZM787.14,213.35l17.48-1.59-7.5,52.89-16.53-12.71,6.55-38.58ZM794.66,206.67c7.76,5.98,14.5,5.86,19.44-.56,4.97-6.46,2.46-11.83-5.31-17.8l-7.55-5.81-14.13,18.37,7.56,5.81Z"/>
    <path class="cls-1" d="M863.86,216.83l12.89,13.46-59.54,57.04-12.9-13.46,59.54-57.03Z"/>
    <path class="cls-1" d="M895.73,251.4l30.32,41.81-12.66,9.18-19.37-26.73-13.4,9.72,16.5,22.75-12.65,9.18-16.5-22.75-15.37,11.15,20.12,27.75-12.65,9.18-31.06-42.84,66.72-48.38Z"/>
    <path class="cls-1" d="M935.99,343.83l-9.65-20.54,14.15-6.65,27.21,57.94-14.15,6.65-9.65-20.54-60.46,28.4-7.92-16.87,60.46-28.39Z"/>
    <path class="cls-1" d="M974.49,396.74l5.46,17.81-78.8,24.14-5.46-17.82,78.8-24.14Z"/>
  </g>
  <path class="cls-1" d="M540,875.97c-185.26,0-335.97-150.72-335.97-335.97s150.72-335.97,335.97-335.97,335.97,150.72,335.97,335.97-150.72,335.97-335.97,335.97ZM540,217.34c-177.92,0-322.66,144.74-322.66,322.66s144.74,322.66,322.66,322.66,322.66-144.74,322.66-322.66-144.74-322.66-322.66-322.66Z"/>
  <path class="cls-1" d="M540,1052c-282.32,0-512-229.68-512-512S257.68,28,540,28s512,229.68,512,512-229.68,512-512,512ZM540,41.31c-274.98,0-498.69,223.71-498.69,498.69s223.71,498.69,498.69,498.69,498.69-223.71,498.69-498.69S814.98,41.31,540,41.31Z"/>
  <g>
    <path class="cls-1" d="M110.93,658.42l13.08,8.85c-4.35,4.75-5.38,9.59-3.99,13.56,2.2,6.29,6.6,8.57,16.98,4.94l50.46-17.64,6.15,17.59-51.92,18.15c-14.97,5.24-30.04,1.78-36.05-15.41-4.16-11.9-2.24-21.35,5.29-30.04Z"/>
    <path class="cls-1" d="M161.37,723.22l38.18-22.32,9.4,16.09-39.84,23.28c-13.93,8.14-16.18,15.34-11.53,23.31,4.68,8,12.19,9.8,26.12,1.65l39.83-23.28,9.06,15.51-38.19,22.32c-23.9,13.97-39.96,10.33-50.72-8.08-10.76-18.41-6.22-34.51,17.67-48.48Z"/>
    <path class="cls-1" d="M242.63,770.63l15.72,17.21c16.98,18.59,18.68,39.01-2.24,58.13-20.92,19.11-41.63,16.07-57.91-1.75l-16.42-17.97,60.85-55.61ZM207.81,832.49c9.44,10.32,20.87,12.67,35.42-.63,14.55-13.3,12.72-24.41,3.28-34.74l-2.39-2.61-38.7,35.37,2.39,2.61Z"/>
    <path class="cls-1" d="M270.93,859.42c15.47-22.05,36.79-25.95,54.99-13.18,18.19,12.77,21.71,34.23,6.3,56.19-15.47,22.05-37.21,26.54-55.4,13.77-18.19-12.77-21.36-34.74-5.89-56.78ZM316.58,891.46c9.49-13.53,9.29-25.59.09-32.05-9.21-6.46-20.62-2.54-30.11,10.98-9.5,13.53-9.7,26.17-.5,32.64,9.2,6.46,21.03,1.97,30.52-11.56Z"/>
    <path class="cls-1" d="M395.69,887.68l28.21,9.26c16.61,5.46,28.34,15.7,22.22,34.32-5.91,18-22.08,21.27-38.69,15.82l-10.5-3.45-9.26,28.19-17.71-5.82,25.73-78.32ZM410.61,932.55c9.31,3.06,15.63.72,18.16-6.98,2.54-7.75-1.61-11.98-10.92-15.04l-9.06-2.97-7.24,22.02,9.06,2.97ZM405.73,941.35l15.97-7.3,10.48,52.39-19.82-6.51-6.63-38.58Z"/>
    <path class="cls-1" d="M469.98,908.94l18.39,3.02-13.36,81.34-18.39-3.02,13.37-81.34Z"/>
    <path class="cls-1" d="M505.71,914.66l51.64,1.28-.39,15.63-33.01-.82-.41,16.54,28.1.7-.39,15.62-28.1-.69-.47,18.99,34.27.84-.38,15.63-52.91-1.31,2.04-82.42Z"/>
    <path class="cls-1" d="M594.87,927.32l-22.39,3.67-2.52-15.42,63.17-10.34,2.52,15.42-22.38,3.67,10.79,65.92-18.39,3.01-10.79-65.92Z"/>
    <path class="cls-1" d="M644.54,900.85l17.78-5.6,24.73,78.62-17.78,5.59-24.73-78.62Z"/>
    <path class="cls-1" d="M720.73,869.51l19.22-11.3,64.09,57.93-17,10-30.45-30.52c-6.15-5.95-12.99-13.23-19.25-19.52l-.44.26c2.69,8.51,5.68,17.94,7.89,26.2l11.82,41.47-16.43,9.66-19.46-84.17ZM737.61,915.62l34.19-20.1,7.34,12.49-34.18,20.1-7.35-12.48Z"/>
    <path class="cls-1" d="M816.09,892.86c-4.21-5.11-3.77-12.09,1.2-16.19,4.97-4.1,11.91-3.2,16.12,1.91,4.18,5.07,3.74,12.06-1.23,16.15-4.97,4.1-11.91,3.2-16.09-1.88Z"/>
    <path class="cls-1" d="M851.37,863.07l-2.3-16.51c7.72-.92,15.42-4.2,19.97-9.23,5.22-5.77,5.51-10.64,1.88-13.93-3.85-3.48-8.22-1.12-15.25,2.23l-10.57,4.88c-8.3,4.01-18.94,5.29-27.82-2.74-10.12-9.17-10.02-25.53,1.49-38.25,6.37-7.04,15.8-11.89,25.8-12.41l2.4,14.85c-6.73,1.23-11.89,3.52-16.26,8.35-4.31,4.76-5.07,9.59-1.58,12.75,3.75,3.4,8.73.63,15.68-2.78l10.21-4.93c9.77-4.73,18.96-4.89,27.6,2.93,10.15,9.19,11.28,25.61-1.9,40.17-7.2,7.95-17.86,13.68-29.33,14.64Z"/>
    <path class="cls-1" d="M906.57,797.66c-5.51-3.68-7.1-10.49-3.52-15.85,3.58-5.36,10.48-6.49,15.99-2.82,5.47,3.65,7.06,10.46,3.48,15.82-3.58,5.36-10.48,6.5-15.95,2.84Z"/>
    <path class="cls-1" d="M868.5,724.87l9.78-21.15c10.56-22.85,28.73-32.32,54.45-20.43,25.72,11.88,30.93,32.16,20.8,54.06l-10.22,22.09-74.81-34.58ZM939,733.03c5.87-12.69,3.61-24.14-14.28-32.41-17.89-8.27-27.43-2.28-33.3,10.42l-1.48,3.21,47.58,21.98,1.48-3.2Z"/>
    <path class="cls-1" d="M967.12,675.8c-6.36-1.85-9.93-7.86-8.13-14.05,1.8-6.19,8.03-9.35,14.4-7.5,6.32,1.84,9.88,7.85,8.09,14.04-1.8,6.19-8.04,9.35-14.36,7.51Z"/>
  </g>
  <path class="cls-1" d="M121.96,570.01c-11.09,0-20.11-9.02-20.11-20.11s9.02-20.11,20.11-20.11,20.11,9.02,20.11,20.11-9.02,20.11-20.11,20.11Z"/>
  <path class="cls-1" d="M953,570.01c-11.09,0-20.11-9.02-20.11-20.11s9.02-20.11,20.11-20.11,20.11,9.02,20.11,20.11-9.02,20.11-20.11,20.11Z"/>
</svg>