<?xml version="1.0" encoding="UTF-8"?>
<svg id="Livello_1" data-name="Livello 1" xmlns="http://www.w3.org/2000/svg" viewBox="0 0 1080 300">
  <defs>
    <style>
      .cls-1 {
        fill: #3c69ae;
      }
    </style>
  </defs>
  <g>
    <g>
      <path class="cls-1" d="M289.68,153.21l15.89-11.82c3.82,7.11,9.12,10.34,14.4,10.34,8.36,0,12.87-4.27,12.87-18.06v-67.05h23.37v68.99c0,19.9-10.32,36.3-33.17,36.3-15.81,0-26.2-6.18-33.37-18.7Z"/>
      <path class="cls-1" d="M376.48,122.1v-55.48h23.37v57.87c0,20.24,6.38,27.24,17.95,27.24s18.32-7,18.32-27.24v-57.87h22.53v55.48c0,34.71-14.11,49.81-40.85,49.81s-41.32-15.1-41.32-49.81Z"/>
      <path class="cls-1" d="M479.53,66.62h29.23c31.57,0,51.92,15.71,51.92,51.24s-20.34,52.14-50.61,52.14h-30.53v-103.38ZM507.34,151.19c17.54,0,29.39-8.6,29.39-33.32s-11.85-32.43-29.39-32.43h-4.43v65.75h4.43Z"/>
      <path class="cls-1" d="M572.39,117.87c0-33.78,19.07-53.15,46.95-53.15s46.95,19.5,46.95,53.15-19.07,54.04-46.95,54.04-46.95-20.27-46.95-54.04ZM642.34,117.87c0-20.73-8.9-32.97-23-32.97s-23,12.24-23,32.97,8.9,33.86,23,33.86,23-13.13,23-33.86Z"/>
      <path class="cls-1" d="M717.5,66.62h37.23c21.93,0,39.9,7.61,39.9,32.19s-17.97,33.99-39.9,33.99h-13.86v37.2h-23.37v-103.38ZM752.83,114.25c12.29,0,18.9-5.26,18.9-15.43s-6.6-13.64-18.9-13.64h-11.96v29.07h11.96ZM750.46,126.64l16.17-14.96,32.99,58.32h-26.16l-23.01-43.37Z"/>
      <path class="cls-1" d="M812.25,66.62h23.37v103.38h-23.37v-103.38Z"/>
      <path class="cls-1" d="M856.89,66.62h64.78v19.6h-41.4v20.76h35.25v19.6h-35.25v23.82h42.99v19.6h-66.36v-103.38Z"/>
      <path class="cls-1" d="M961.41,86.23h-28.46v-19.6h80.29v19.6h-28.46v83.78h-23.37v-83.78Z"/>
      <path class="cls-1" d="M1025.52,66.62h23.37v103.38h-23.37v-103.38Z"/>
    </g>
    <g>
      <path class="cls-1" d="M289.68,234.84l10.07-25.55h5l-9.78,25.55h-5.29ZM294.43,229.22v-4.42h16.02v4.42h-16.02ZM309.86,234.84l-9.78-25.55h5l10.07,25.55h-5.29Z"/>
      <path class="cls-1" d="M325.82,235.28c-1.29,0-2.49-.16-3.61-.47-1.12-.32-2.12-.76-2.99-1.33-.88-.57-1.6-1.21-2.17-1.92-.57-.71-.94-1.45-1.11-2.23l4.89-1.46c.32.83.88,1.54,1.68,2.13.8.6,1.81.91,3.03.93,1.29.02,2.34-.26,3.16-.84.81-.58,1.22-1.34,1.22-2.26,0-.8-.32-1.48-.97-2.03-.64-.55-1.53-.97-2.65-1.26l-3.32-.88c-1.24-.32-2.34-.8-3.28-1.44-.95-.64-1.69-1.44-2.23-2.39-.54-.95-.8-2.06-.8-3.32,0-2.41.8-4.29,2.39-5.64,1.59-1.35,3.85-2.03,6.77-2.03,1.63,0,3.06.24,4.29.71,1.23.47,2.26,1.15,3.08,2.03.83.88,1.46,1.91,1.9,3.1l-4.85,1.5c-.29-.83-.83-1.53-1.61-2.12-.78-.58-1.76-.88-2.96-.88s-2.17.28-2.86.84c-.69.56-1.04,1.35-1.04,2.37,0,.8.27,1.44.82,1.9.55.46,1.3.82,2.24,1.06l3.36.84c2.19.54,3.89,1.5,5.11,2.88,1.22,1.39,1.82,2.93,1.82,4.64,0,1.51-.36,2.83-1.09,3.96-.73,1.13-1.79,2.01-3.18,2.65s-3.07.95-5.04.95Z"/>
      <path class="cls-1" d="M347.29,235.28c-1.29,0-2.49-.16-3.61-.47-1.12-.32-2.12-.76-2.99-1.33-.88-.57-1.6-1.21-2.17-1.92-.57-.71-.94-1.45-1.11-2.23l4.89-1.46c.32.83.88,1.54,1.68,2.13.8.6,1.81.91,3.03.93,1.29.02,2.34-.26,3.16-.84.81-.58,1.22-1.34,1.22-2.26,0-.8-.32-1.48-.97-2.03-.64-.55-1.53-.97-2.65-1.26l-3.32-.88c-1.24-.32-2.34-.8-3.28-1.44-.95-.64-1.69-1.44-2.23-2.39-.54-.95-.8-2.06-.8-3.32,0-2.41.8-4.29,2.39-5.64,1.59-1.35,3.85-2.03,6.77-2.03,1.63,0,3.06.24,4.29.71,1.23.47,2.26,1.15,3.08,2.03.83.88,1.46,1.91,1.9,3.1l-4.85,1.5c-.29-.83-.83-1.53-1.61-2.12-.78-.58-1.76-.88-2.96-.88s-2.17.28-2.86.84c-.69.56-1.04,1.35-1.04,2.37,0,.8.27,1.44.82,1.9.55.46,1.3.82,2.24,1.06l3.36.84c2.19.54,3.89,1.5,5.11,2.88,1.22,1.39,1.82,2.93,1.82,4.64,0,1.51-.36,2.83-1.09,3.96-.73,1.13-1.79,2.01-3.18,2.65-1.39.63-3.07.95-5.04.95Z"/>
      <path class="cls-1" d="M371.78,235.28c-2.58,0-4.86-.57-6.84-1.7-1.98-1.13-3.53-2.69-4.65-4.67-1.12-1.98-1.68-4.25-1.68-6.81s.56-4.9,1.68-6.88c1.12-1.98,2.66-3.53,4.62-4.65,1.96-1.12,4.22-1.68,6.77-1.68s4.85.57,6.81,1.7c1.96,1.13,3.5,2.69,4.62,4.67,1.12,1.98,1.68,4.26,1.68,6.84s-.55,4.82-1.66,6.81c-1.11,1.98-2.64,3.54-4.6,4.67-1.96,1.13-4.2,1.7-6.73,1.7ZM371.78,230.72c1.56,0,2.93-.37,4.11-1.11,1.18-.74,2.1-1.76,2.77-3.05.67-1.29,1-2.77,1-4.45s-.34-3.2-1.02-4.49c-.68-1.29-1.62-2.3-2.81-3.05-1.19-.74-2.58-1.11-4.16-1.11s-2.9.37-4.11,1.11c-1.2.74-2.15,1.76-2.83,3.05-.68,1.29-1.02,2.79-1.02,4.49s.34,3.16,1.02,4.45c.68,1.29,1.63,2.31,2.85,3.05,1.22.74,2.62,1.11,4.2,1.11Z"/>
      <path class="cls-1" d="M399.67,235.28c-2.48,0-4.68-.57-6.61-1.7-1.92-1.13-3.43-2.69-4.53-4.67-1.09-1.98-1.64-4.26-1.64-6.84s.55-4.86,1.64-6.84c1.09-1.98,2.6-3.54,4.51-4.67,1.91-1.13,4.11-1.7,6.59-1.7,1.75,0,3.38.31,4.89.93,1.51.62,2.83,1.48,3.96,2.59,1.13,1.11,2,2.38,2.61,3.81l-4.63,1.72c-.41-.9-.96-1.68-1.64-2.35-.68-.67-1.46-1.19-2.34-1.57-.88-.38-1.82-.57-2.85-.57-1.48,0-2.8.37-3.96,1.11-1.16.74-2.06,1.76-2.7,3.05-.64,1.29-.97,2.79-.97,4.49s.33,3.21.99,4.51c.66,1.3,1.57,2.32,2.74,3.07,1.17.74,2.51,1.11,4.01,1.11,1.05,0,2-.2,2.86-.6.86-.4,1.63-.95,2.3-1.66.67-.7,1.21-1.52,1.62-2.44l4.63,1.68c-.61,1.48-1.48,2.8-2.61,3.94-1.13,1.14-2.45,2.03-3.96,2.66-1.51.63-3.15.95-4.93.95Z"/>
      <path class="cls-1" d="M414.3,234.84v-25.55h5v25.55h-5Z"/>
      <path class="cls-1" d="M421.68,234.84l10.07-25.55h5l-9.78,25.55h-5.29ZM426.43,229.22v-4.42h16.02v4.42h-16.02ZM441.86,234.84l-9.78-25.55h5l10.07,25.55h-5.29Z"/>
      <path class="cls-1" d="M448.85,234.84v-4.67l13.83-16.2h-13.72v-4.67h20.18v4.67l-13.83,16.2h13.72v4.67h-20.18Z"/>
      <path class="cls-1" d="M472.9,234.84v-25.55h5v25.55h-5Z"/>
      <path class="cls-1" d="M494.7,235.28c-2.58,0-4.86-.57-6.84-1.7-1.98-1.13-3.53-2.69-4.65-4.67-1.12-1.98-1.68-4.25-1.68-6.81s.56-4.9,1.68-6.88c1.12-1.98,2.66-3.53,4.62-4.65,1.96-1.12,4.22-1.68,6.77-1.68s4.85.57,6.81,1.7c1.96,1.13,3.5,2.69,4.62,4.67,1.12,1.98,1.68,4.26,1.68,6.84s-.55,4.82-1.66,6.81c-1.11,1.98-2.64,3.54-4.6,4.67-1.96,1.13-4.2,1.7-6.73,1.7ZM494.7,230.72c1.56,0,2.93-.37,4.11-1.11,1.18-.74,2.1-1.76,2.77-3.05.67-1.29,1-2.77,1-4.45s-.34-3.2-1.02-4.49c-.68-1.29-1.62-2.3-2.81-3.05-1.19-.74-2.58-1.11-4.16-1.11s-2.9.37-4.11,1.11c-1.2.74-2.15,1.76-2.83,3.05-.68,1.29-1.02,2.79-1.02,4.49s.34,3.16,1.02,4.45c.68,1.29,1.63,2.31,2.85,3.05,1.22.74,2.62,1.11,4.2,1.11Z"/>
      <path class="cls-1" d="M511.27,234.84v-25.55h5.22l12.48,17.15v-17.15h4.96v25.55h-4.96l-12.7-17.48v17.48h-5Z"/>
      <path class="cls-1" d="M538.96,234.84v-25.55h16.17v4.56h-11.17v5.8h9.63v4.45h-9.63v6.17h11.31v4.56h-16.31Z"/>
      <path class="cls-1" d="M577.72,235.28c-1.29,0-2.49-.16-3.61-.47-1.12-.32-2.12-.76-2.99-1.33-.88-.57-1.6-1.21-2.17-1.92-.57-.71-.94-1.45-1.11-2.23l4.89-1.46c.32.83.88,1.54,1.68,2.13.8.6,1.81.91,3.03.93,1.29.02,2.34-.26,3.16-.84.81-.58,1.22-1.34,1.22-2.26,0-.8-.32-1.48-.97-2.03-.64-.55-1.53-.97-2.65-1.26l-3.32-.88c-1.24-.32-2.34-.8-3.28-1.44-.95-.64-1.69-1.44-2.23-2.39-.54-.95-.8-2.06-.8-3.32,0-2.41.8-4.29,2.39-5.64,1.59-1.35,3.85-2.03,6.77-2.03,1.63,0,3.06.24,4.29.71,1.23.47,2.26,1.15,3.08,2.03.83.88,1.46,1.91,1.9,3.1l-4.85,1.5c-.29-.83-.83-1.53-1.61-2.12-.78-.58-1.76-.88-2.96-.88s-2.17.28-2.86.84c-.69.56-1.04,1.35-1.04,2.37,0,.8.27,1.44.82,1.9.55.46,1.3.82,2.24,1.06l3.36.84c2.19.54,3.89,1.5,5.11,2.88,1.22,1.39,1.82,2.93,1.82,4.64,0,1.51-.36,2.83-1.09,3.96-.73,1.13-1.79,2.01-3.18,2.65-1.39.63-3.07.95-5.04.95Z"/>
      <path class="cls-1" d="M590.78,234.84v-25.55h9.49c1.8,0,3.39.36,4.78,1.08,1.39.72,2.47,1.72,3.25,2.99.78,1.28,1.17,2.76,1.17,4.43s-.38,3.13-1.13,4.42c-.75,1.29-1.79,2.31-3.1,3.05-1.31.74-2.83,1.11-4.56,1.11h-4.89v8.47h-5ZM595.78,221.78h4.78c1.12,0,2.04-.37,2.76-1.11.72-.74,1.08-1.7,1.08-2.86s-.4-2.12-1.19-2.85c-.79-.73-1.81-1.09-3.05-1.09h-4.38v7.92Z"/>
      <path class="cls-1" d="M624.29,235.28c-2.58,0-4.86-.57-6.84-1.7-1.98-1.13-3.53-2.69-4.65-4.67-1.12-1.98-1.68-4.25-1.68-6.81s.56-4.9,1.68-6.88c1.12-1.98,2.66-3.53,4.62-4.65,1.96-1.12,4.22-1.68,6.77-1.68s4.85.57,6.81,1.7c1.96,1.13,3.5,2.69,4.62,4.67,1.12,1.98,1.68,4.26,1.68,6.84s-.55,4.82-1.66,6.81c-1.11,1.98-2.64,3.54-4.6,4.67-1.96,1.13-4.2,1.7-6.73,1.7ZM624.29,230.72c1.56,0,2.93-.37,4.11-1.11,1.18-.74,2.1-1.76,2.77-3.05.67-1.29,1-2.77,1-4.45s-.34-3.2-1.02-4.49c-.68-1.29-1.62-2.3-2.81-3.05-1.19-.74-2.58-1.11-4.16-1.11s-2.9.37-4.11,1.11c-1.2.74-2.15,1.76-2.83,3.05-.68,1.29-1.02,2.79-1.02,4.49s.34,3.16,1.02,4.45c.68,1.29,1.63,2.31,2.85,3.05,1.22.74,2.62,1.11,4.2,1.11Z"/>
      <path class="cls-1" d="M640.85,234.84v-25.55h9.49c1.8,0,3.39.35,4.78,1.06,1.39.71,2.47,1.67,3.25,2.9.78,1.23,1.17,2.66,1.17,4.29s-.41,3.04-1.22,4.29c-.82,1.25-1.93,2.23-3.34,2.92-1.41.69-3.02,1.04-4.82,1.04h-4.31v9.05h-5ZM645.85,221.23h4.53c.75,0,1.43-.16,2.03-.47.6-.32,1.07-.75,1.42-1.31.35-.56.53-1.19.53-1.9,0-1.1-.4-1.98-1.19-2.66-.79-.68-1.81-1.02-3.05-1.02h-4.27v7.37ZM654.9,234.84l-5.91-10.25,3.83-2.74,7.74,12.99h-5.66Z"/>
      <path class="cls-1" d="M669.04,234.84v-20.98h-7.66v-4.56h20.29v4.56h-7.63v20.98h-5Z"/>
      <path class="cls-1" d="M684.13,234.84v-25.55h5v25.55h-5Z"/>
      <path class="cls-1" d="M701.67,234.84l-10.18-25.55h5.36l9.71,25.55h-4.89ZM702.22,234.84l9.67-25.55h5.36l-10.15,25.55h-4.89Z"/>
      <path class="cls-1" d="M714.72,234.84l10.07-25.55h5l-9.78,25.55h-5.29ZM719.47,229.22v-4.42h16.02v4.42h-16.02ZM734.91,234.84l-9.78-25.55h5l10.07,25.55h-5.29Z"/>
      <path class="cls-1" d="M751.95,234.84v-25.55h8.17c2.6,0,4.91.55,6.92,1.64,2.01,1.09,3.58,2.6,4.71,4.51,1.13,1.91,1.7,4.12,1.7,6.62s-.57,4.68-1.7,6.61c-1.13,1.92-2.7,3.43-4.71,4.52-2.01,1.1-4.31,1.64-6.92,1.64h-8.17ZM756.95,230.17h3.18c1.17,0,2.25-.21,3.25-.62,1-.41,1.87-.99,2.61-1.72.74-.73,1.32-1.59,1.73-2.57.41-.99.62-2.05.62-3.19s-.21-2.21-.62-3.19c-.41-.99-.99-1.84-1.73-2.57-.74-.73-1.61-1.3-2.61-1.72-1-.41-2.08-.62-3.25-.62h-3.18v16.2Z"/>
      <path class="cls-1" d="M776.98,234.84v-25.55h5v25.55h-5Z"/>
      <path class="cls-1" d="M787.02,234.84v-25.55h5v20.98h11.24v4.56h-16.24Z"/>
      <path class="cls-1" d="M805.74,234.84v-25.55h16.17v4.56h-11.17v5.8h9.63v4.45h-9.63v6.17h11.31v4.56h-16.31Z"/>
      <path class="cls-1" d="M831.94,234.84v-20.98h-7.66v-4.56h20.29v4.56h-7.63v20.98h-5Z"/>
      <path class="cls-1" d="M853.64,234.84v-20.98h-7.66v-4.56h20.29v4.56h-7.63v20.98h-5Z"/>
      <path class="cls-1" d="M863.53,234.84l10.07-25.55h5l-9.78,25.55h-5.29ZM868.27,229.22v-4.42h16.02v4.42h-16.02ZM883.71,234.84l-9.78-25.55h5l10.07,25.55h-5.29Z"/>
      <path class="cls-1" d="M891.35,234.84v-25.55h5.22l12.48,17.15v-17.15h4.96v25.55h-4.96l-12.7-17.48v17.48h-5Z"/>
      <path class="cls-1" d="M924.12,234.84v-20.98h-7.66v-4.56h20.29v4.56h-7.63v20.98h-5Z"/>
      <path class="cls-1" d="M939.22,234.84v-25.55h5v25.55h-5Z"/>
      <path class="cls-1" d="M957.66,235.28c-1.29,0-2.49-.16-3.61-.47-1.12-.32-2.12-.76-2.99-1.33-.88-.57-1.6-1.21-2.17-1.92-.57-.71-.94-1.45-1.11-2.23l4.89-1.46c.32.83.88,1.54,1.68,2.13.8.6,1.81.91,3.03.93,1.29.02,2.34-.26,3.16-.84.81-.58,1.22-1.34,1.22-2.26,0-.8-.32-1.48-.97-2.03-.64-.55-1.53-.97-2.65-1.26l-3.32-.88c-1.24-.32-2.34-.8-3.28-1.44-.95-.64-1.69-1.44-2.23-2.39-.54-.95-.8-2.06-.8-3.32,0-2.41.8-4.29,2.39-5.64,1.59-1.35,3.85-2.03,6.77-2.03,1.63,0,3.06.24,4.29.71,1.23.47,2.26,1.15,3.08,2.03.83.88,1.46,1.91,1.9,3.1l-4.85,1.5c-.29-.83-.83-1.53-1.61-2.12-.78-.58-1.76-.88-2.96-.88s-2.17.28-2.86.84c-.69.56-1.04,1.35-1.04,2.37,0,.8.27,1.44.82,1.9.55.46,1.3.82,2.24,1.06l3.36.84c2.19.54,3.89,1.5,5.11,2.88,1.22,1.39,1.82,2.93,1.82,4.64,0,1.51-.36,2.83-1.09,3.96-.73,1.13-1.79,2.01-3.18,2.65-1.39.63-3.07.95-5.04.95Z"/>
      <path class="cls-1" d="M976.41,234.84v-20.98h-7.66v-4.56h20.29v4.56h-7.63v20.98h-5Z"/>
      <path class="cls-1" d="M991.5,234.84v-25.55h5v25.55h-5Z"/>
      <path class="cls-1" d="M1012.9,235.28c-2.48,0-4.68-.57-6.61-1.7-1.92-1.13-3.43-2.69-4.53-4.67-1.09-1.98-1.64-4.26-1.64-6.84s.55-4.86,1.64-6.84,2.6-3.54,4.51-4.67c1.91-1.13,4.11-1.7,6.59-1.7,1.75,0,3.38.31,4.89.93,1.51.62,2.83,1.48,3.96,2.59,1.13,1.11,2,2.38,2.61,3.81l-4.63,1.72c-.41-.9-.96-1.68-1.64-2.35-.68-.67-1.46-1.19-2.34-1.57-.88-.38-1.82-.57-2.85-.57-1.48,0-2.8.37-3.96,1.11-1.16.74-2.06,1.76-2.7,3.05-.64,1.29-.97,2.79-.97,4.49s.33,3.21.99,4.51c.66,1.3,1.57,2.32,2.74,3.07,1.17.74,2.51,1.11,4.01,1.11,1.05,0,2-.2,2.86-.6.86-.4,1.63-.95,2.3-1.66.67-.7,1.21-1.52,1.62-2.44l4.63,1.68c-.61,1.48-1.48,2.8-2.61,3.94-1.13,1.14-2.45,2.03-3.96,2.66-1.51.63-3.15.95-4.93.95Z"/>
      <path class="cls-1" d="M1024.53,234.84l10.07-25.55h5l-9.78,25.55h-5.29ZM1029.28,229.22v-4.42h16.02v4.42h-16.02ZM1044.71,234.84l-9.78-25.55h5l10.07,25.55h-5.29Z"/>
    </g>
  </g>
  <g>
    <path class="cls-1" d="M141.29,261.3c-61.37,0-111.3-49.93-111.3-111.3s49.93-111.3,111.3-111.3,111.3,49.93,111.3,111.3-49.93,111.3-111.3,111.3ZM141.29,49.55c-55.39,0-100.45,45.06-100.45,100.45s45.06,100.45,100.45,100.45,100.45-45.06,100.45-100.45-45.06-100.45-100.45-100.45Z"/>
    <g>
      <path class="cls-1" d="M131.93,168.96l-2.7,6.21h0c-4.27,9.8-14.05,16.65-25.42,16.65-9.82,0-18.45-5.11-23.38-12.82h0s-12.69-19.38-12.69-19.38l8.28-12.72,15.96,24.56c2.46,3.92,6.83,6.53,11.8,6.53,5.7,0,10.6-3.43,12.75-8.34l3.81-8.77h-16.57s8.83-13.59,8.83-13.59h55.33c-6.46-7.76-11.62-16.62-15.16-26.28l-7.27,16.7h-15.11l14.56-33.47h-41.24s9.02-13.88,9.02-13.88h89.15l-9.02,13.88h-30.62c3.03,16.3,11.31,30.76,23.01,41.55l-9.8,15.08h-32.43l32.91,50.64h-16.35l-27.68-42.56Z"/>
      <path class="cls-1" d="M191.24,137.72c-6.78,0-12.29-5.51-12.29-12.29s5.51-12.29,12.29-12.29,12.29,5.51,12.29,12.29-5.51,12.29-12.29,12.29Z"/>
    </g>
  </g>
</svg>