<?xml version="1.0" encoding="UTF-8"?>
<svg id="Livello_1" data-name="Livello 1" xmlns="http://www.w3.org/2000/svg" viewBox="0 0 24 24">
  <defs>
    <style>
      .cls-1 {
        fill: #fff;
      }
    </style>
  </defs>
  <g>
    <path class="cls-1" d="M1.72,10.92l1.49,2.29c.23.37.64.61,1.1.61.53,0,.99-.32,1.19-.78l.91-2.09h1.41l-1.13,2.6h0c-.4.91-1.31,1.55-2.37,1.55-.92,0-1.72-.48-2.18-1.2h0s-1.18-1.81-1.18-1.81l.77-1.19Z"/>
    <polygon class="cls-1" points="11.75 16.95 7.84 10.96 9.37 10.96 13.27 16.95 11.75 16.95"/>
    <path class="cls-1" d="M15.14,12.46c-2.31.1-4.65-.77-6.37-2.58l.92-.88c1.41,1.48,3.31,2.22,5.21,2.19l.24,1.27Z"/>
    <circle class="cls-1" cx="11.6" cy="8.27" r="1.15"/>
  </g>
  <g>
    <polygon class="cls-1" points="22.09 8.46 18 14.33 17.42 12.91 21.52 7.05 22.09 8.46"/>
    <path class="cls-1" d="M13.3,7.95c1.65,1.21,2.62,3,2.84,4.89l1.29.07c-.12-1.37-.58-2.72-1.36-3.89l1.66.37.83-1.14-4.7-1.06-.55.75Z"/>
    <path class="cls-1" d="M23.05,16.64c-2.23.63-4.7.32-6.79-1.04l.69-1.07c1.71,1.12,3.74,1.39,5.57.92l.52,1.18Z"/>
    <circle class="cls-1" cx="15.21" cy="14.4" r="1.15"/>
  </g>
</svg>