<?xml version="1.0" encoding="UTF-8"?>
<svg id="Livello_1" data-name="Livello 1" xmlns="http://www.w3.org/2000/svg" viewBox="0 0 24 24">
  <defs>
    <style>
      .cls-1 {
        fill: #fff;
      }
    </style>
  </defs>
  <path class="cls-1" d="M12.88,20.13l1.25-2.85c.2-.45.18-.99-.11-1.43-.33-.51-.92-.74-1.48-.65l-2.55.44-.88-1.34,3.18-.55h0c1.12-.19,2.3.27,2.96,1.28.57.87.62,1.94.23,2.82h0s-.98,2.26-.98,2.26h-1.61Z"/>
  <path class="cls-1" d="M13.46,8c-.35,2.61-1.78,5.06-4.15,6.62l-.8-1.21c1.94-1.29,3.14-3.27,3.48-5.4h1.46Z"/>
  <g>
    <polygon class="cls-1" points="18.22 14.83 13.78 8 15.52 8 19.95 14.83 18.22 14.83"/>
    <path class="cls-1" d="M20.89,4.24c-1.73,1.98-4.27,3.24-7.11,3.24v-1.45c2.33,0,4.42-1,5.88-2.59l1.23.8Z"/>
    <path class="cls-1" d="M11.83,6.04c-.39,2.6-1.86,5.03-4.24,6.56l-.78-1.22c1.96-1.26,3.19-3.23,3.56-5.35h1.46Z"/>
    <circle class="cls-1" cx="8.08" cy="6.77" r="1.31"/>
  </g>
  <g>
    <path class="cls-1" d="M3.56,15.47c2.11.99,4.43.99,6.43.18l.77,1.25c-1.44.63-3.03.9-4.62.75l1.28,1.46-.68,1.45-3.62-4.12.45-.96Z"/>
    <circle class="cls-1" cx="5.17" cy="13.98" r="1.31"/>
  </g>
</svg>