<?xml version="1.0" encoding="UTF-8"?>
<svg id="Livello_1" data-name="Livello 1" xmlns="http://www.w3.org/2000/svg" viewBox="0 0 24 24">
  <defs>
    <style>
      .cls-1 {
        fill: #fff;
      }
    </style>
  </defs>
  <g>
    <path class="cls-1" d="M19.97,16.06c-2.11.67-4.49.46-6.54-.78l.63-1.04c1.68,1.01,3.62,1.21,5.37.71l.54,1.11Z"/>
    <path class="cls-1" d="M16.36,5.75c1.66,1.47,2.7,3.62,2.69,6.01h-1.22c0-1.97-.82-3.74-2.15-4.97l.68-1.03Z"/>
    <polygon class="cls-1" points="17.73 14.49 19.21 14.5 14.91 7.78 13.43 7.77 17.73 14.49"/>
    <circle class="cls-1" cx="21.34" cy="14.65" r="1.1"/>
  </g>
  <g>
    <path class="cls-1" d="M9.69,12.03c-.27-2.2.37-4.5,1.97-6.28l.91.81c-1.31,1.46-1.86,3.34-1.68,5.15l-1.19.32Z"/>
    <circle class="cls-1" cx="12.33" cy="11.08" r="1.1"/>
    <polygon class="cls-1" points="11.71 18.25 7.97 12.5 9.44 12.5 13.17 18.25 11.71 18.25"/>
    <path class="cls-1" d="M8.85,11.16c-1.33-1.24-2.17-3-2.16-4.96h-1.22c0,1.93.68,3.71,1.83,5.09H2.35s-.79,1.2-.79,1.2h6.41s.68-1.03.68-1.03l.2-.31Z"/>
  </g>
</svg>